<?xml version="1.0" encoding="utf-8"?>
<!-- Generator: Adobe Illustrator 19.0.1, SVG Export Plug-In . SVG Version: 6.00 Build 0)  -->
<svg version="1.1" id="Layer_1" xmlns="http://www.w3.org/2000/svg" xmlns:xlink="http://www.w3.org/1999/xlink" x="0px" y="0px"
	 viewBox="0 0 95.6 149" enable-background="new 0 0 95.6 149" xml:space="preserve">
<g>
	<path d="M25,101.1c0-3,0.2-6-0.1-9c-0.1-1-0.9-2.4-1.8-2.9c-9.6-5.9-16.4-14-20.3-24.5C-0.3,55.9-0.7,47,1,37.9
		c1.7-9,5.9-16.8,12.2-23.4C19,8.4,26.1,3.9,34.5,1.9c4.4-1,9-1.9,13.5-1.9c11.5-0.1,21.7,3.7,30.5,11c9.2,7.6,15.1,17.4,16.5,29
		c2.5,19.5-3.7,37.3-22.5,48.9c-13,8.1-26.1,16-39.2,23.8c-1.3,0.8-3.1,1-4.7,1.1c-2.2,0.2-3.4-1.1-3.4-3.4c0-3.2,0-6.3,0-9.5
		C25.2,101.1,25.1,101.1,25,101.1z M33.8,93c0,1.8,0,3.7,0,5.5c0.1,2.4,0.7,2.7,2.7,1.5C46.6,94,56.7,87.8,66.8,81.7
		c16.9-10.1,23.9-29.6,17.4-47.1C76.5,13.6,51.4,2,29.9,13.4C14.4,21.7,6.2,38.6,9.6,55.3c2.2,10.8,8,19.8,17.7,25.2
		C32.8,83.5,35,87.1,33.8,93z"/>
	<path d="M70.4,108c0.3,1.7-0.7,2.9-2.3,3.8c-11.7,7.1-23.3,14.2-35,21.2c-0.8,0.5-1.6,0.9-2.5,1.1c-2.1,0.4-4.1,0.2-5.2-1.9
		c-1-1.9-0.2-5.1,1.6-6.2c5.6-3.5,11.2-6.9,16.8-10.3c6.5-4,13.1-8,19.6-11.9C67.2,101.6,70.4,103.5,70.4,108z"/>
	<path d="M61.8,133.6c-0.9,1.2-1.5,2.8-2.7,3.5c-6,3.9-12.2,7.5-18.3,11.2c-2.2,1.3-5,0.6-6.1-1.4c-1.2-2-0.6-5.2,1.4-6.4
		c6-3.7,12-7.4,18.2-11C58,127.4,61.4,129.3,61.8,133.6z"/>
</g>
</svg>
