<?xml version="1.0" encoding="utf-8"?>
<!-- Generator: Adobe Illustrator 19.1.0, SVG Export Plug-In . SVG Version: 6.00 Build 0)  -->
<svg version="1.1" id="Layer_1" xmlns="http://www.w3.org/2000/svg" xmlns:xlink="http://www.w3.org/1999/xlink" x="0px" y="0px"
	 viewBox="-378 147.7 216.2 266.3" enable-background="new -378 147.7 216.2 266.3" xml:space="preserve">
<g>
	<path d="M-243.9,293.1c2.6-3.2,5.2-6.5,7.9-9.9c2.8,2.6,4.8,4.5,7.2,6.7c14.4-14.5,28.6-29,42.7-43.2c6.5,6.6,12.6,12.9,18.8,19.2
		c-13.9,13.6-28.3,27.8-43.1,42.3c2.8,3.1,4.8,5.2,6.5,7c-5.7,5.7-11.2,11.2-17.1,17c-1.7-1.5-3.9-3.5-6.4-5.7c-1,1.3-2,2.5-3.2,4
		c9.2,6.7,10.4,16.4,10.2,27c-0.4,17.2-0.1,34.3-0.1,51.5c0,1.8,0,3.6,0,5.8c-52.9,0-105.3,0-157.9,0c-0.1-2.1-0.2-3.7-0.2-5.4
		c0-19.5,0-39,0-58.5c0-14.6,10.6-25.1,25.2-25.1c8.3,0,16.6,0,25.1,0c0-3,0-5.4,0-8.4c-8.5,0-16.7,0-25.3,0c-0.2-2-0.4-3.4-0.4-4.9
		c-0.2-20.8-0.3-41.6-0.3-62.4c0-4.3,0.3-8.7,1.2-12.9c2.4-10.5,11.7-18.4,22.6-18.6c20.5-0.3,41-0.3,61.5,0
		c13.1,0.2,23.2,10.7,23.4,23.8c0.3,14.8,0.1,29.6,0.1,44.5c0,1.8,0,3.6,0,5.3C-244.9,292.5-244.4,292.8-243.9,293.1z M-354.5,406.5
		c18.3,0,36,0,54.1,0c0-7.8,0.1-15.2-0.1-22.7c0-1.4-1.1-3.1-2.2-4.2c-14.3-14.4-28.7-28.8-43.1-43.1c-1.1-1.1-2.6-2.2-4.1-2.5
		c-11.4-2.1-20.8,5.9-20.8,17.7c0,16.5,0,33,0,49.4c0,1.8,0,3.5,0,5.3c3.1,0,5.4,0,8.1,0c0-2.4,0-4.3,0-6.3c0-7.8,0-15.6,0-23.5
		c0-2.9,1.2-5.4,4.2-4.8c1.5,0.3,2.9,2.8,3.7,4.6c0.6,1.2,0.1,2.9,0.1,4.4C-354.5,389.4-354.5,397.8-354.5,406.5z M-281.8,366.5
		c6.1,3.3,5.9,8.4,5.7,13.7c-0.2,4.3,0,8.7,0,13c0,4.4,0,8.8,0,13.2c10.9,0,21,0,31.5,0c0-2.1,0-3.9,0-5.7c0-8.2-0.2-16.3,0.2-24.4
		c0.1-1.6,2.5-3.1,3.9-4.6c1.3,1.6,3.1,2.9,3.8,4.7c0.6,1.6,0.1,3.6,0.1,5.4c0,8.3,0,16.5,0,24.8c3,0,5.3,0,7.7,0
		c0.2-0.8,0.4-1.5,0.4-2.1c0-18.1,0.2-36.3-0.2-54.4c-0.1-3.5-2-7.4-4.2-10.3c-4.3-5.7-14.9-7-19.2-2.8
		C-261.9,346.5-271.5,356.2-281.8,366.5z M-253.6,283.7c-8.2,1.9-16.1,3.3-23.7,5.5c-6.5,1.9-12.3,2-17.6-2.7
		c-3.4-3-6.6-3.1-9.8,0.3c-3.8,4.1-8.2,4.4-13.5,2.9c-8.9-2.4-18-4-27.3-6.1c0,8.7,0,16.8,0,25c30.8,0,61.2,0,91.9,0
		C-253.6,300.4-253.6,292.4-253.6,283.7z M-345.5,275.3c9.1,2,17.9,3.7,26.5,6c4.4,1.2,7.7,0.6,11.4-2.3c7-5.6,7.1-5.3,15.1-0.7
		c2.7,1.5,5.8,4.1,8.3,3.7c10.2-1.7,20.3-4.4,30.3-6.8c0-7.5,0-14.6,0-21.4c-30.8,0-61.1,0-91.6,0
		C-345.5,261.1-345.5,267.9-345.5,275.3z M-254,245.2c1.4-9.6-5.3-18.3-15.1-18.5c-20.3-0.4-40.6-0.4-60.9,0
		c-9.8,0.2-16.4,8.9-15.1,18.5C-314.8,245.2-284.4,245.2-254,245.2z M-320.4,317.7c0.7,4.3,0,9,2,11.4c6.1,7.3,13.3,13.8,20.5,21
		c4.5-4.7,8.2-9.6,12.9-13.1c7.1-5.4,5.5-12.2,5.1-19.2C-293.2,317.7-306.2,317.7-320.4,317.7z M-284.3,406.6
		c0-9.1-0.1-17.8,0.1-26.4c0.1-3.4-0.9-5.9-3.4-8.3c-11.4-11.2-22.9-22.4-33.9-34c-4.1-4.4-8.4-4.3-14.2-3.6c1.6,1.7,2.6,2.9,3.7,4
		c12.1,12.1,24.2,24.3,36.4,36.4c2.5,2.4,3.5,4.9,3.4,8.3c-0.2,7.8-0.1,15.5-0.1,23.5C-289.3,406.6-287.2,406.6-284.3,406.6z
		 M-184.6,258.7c-12.8,12.7-25.2,25-37.4,37.1c2.1,2.2,4.3,4.6,5.8,6.2c12.5-12.5,25-24.9,37.3-37.2
		C-180.6,263-182.8,260.7-184.6,258.7z M-240.1,299.9c7,7.1,13.7,13.7,20,20.1c1.4-1.2,3.1-2.6,4.2-3.6
		c-6.8-6.9-13.4-13.6-20.3-20.6C-237.5,297.1-238.9,298.7-240.1,299.9z M-288.6,359.3c8.3-8.2,16.3-16.1,24.6-24.4
		c-3.1,0.6-7,0.1-8.9,1.8c-6.7,5.8-12.8,12.4-19.5,19.2C-290.6,357.4-289.3,358.6-288.6,359.3z M-252.6,326.2
		c7.3-1.6,15.1,3.6,19-5.2c-2.3-2.4-4.6-4.8-6.9-7.2C-244.1,317.5-247.8,321.2-252.6,326.2z M-271.2,325.3c6.5,1.1,9.4-0.6,13.2-7.5
		c-4.4,0-8.7,0-13.2,0C-271.2,320.5-271.2,322.9-271.2,325.3z"/>
	<path d="M-161.8,255.8c-1.3,1.1-3.2,2.7-5.1,4.3c-4.2-4.3-8.4-8.6-13.2-13.5c1.7-1.4,3.6-3,5.6-4.5
		C-170.5,246.4-166.3,251-161.8,255.8z"/>
	<path fill="#FFFFFF" d="M-271.2,325.3c0-2.4,0-4.8,0-7.5c4.5,0,8.8,0,13.2,0C-261.8,324.6-264.7,326.3-271.2,325.3z"/>
	<path d="M-280,267.9c-3.5,0-7.1,0.4-10.5-0.2c-1.8-0.3-3.3-2.3-5-3.5c1.5-1.5,2.9-4.1,4.4-4.2c7.3-0.4,14.6-0.4,21.9,0
		c1.6,0.1,3,2.7,4.5,4.2c-1.6,1.2-3.1,3.2-4.9,3.5C-273,268.3-276.6,267.9-280,267.9z"/>
	<path d="M-320.1,267.9c-3.7,0-7.4,0.4-10.9-0.2c-1.6-0.2-2.9-2.3-4.4-3.6c1.3-1.4,2.6-4,4-4.1c7.6-0.4,15.3-0.4,22.9,0
		c1.4,0.1,2.6,2.7,3.9,4.2c-1.5,1.2-2.9,3.2-4.5,3.4C-312.7,268.3-316.5,267.9-320.1,267.9z"/>
</g>
</svg>
