<?xml version="1.0" encoding="utf-8"?>
<!-- Generator: Adobe Illustrator 19.1.0, SVG Export Plug-In . SVG Version: 6.00 Build 0)  -->
<svg version="1.1" id="Layer_1" xmlns="http://www.w3.org/2000/svg" xmlns:xlink="http://www.w3.org/1999/xlink" x="0px" y="0px"
	 viewBox="0 0 202 266.3" enable-background="new 0 0 202 266.3" xml:space="preserve">
<g>
	<path d="M33.6,266.3c0-19.1,0-37.9,0-57.5c-2.7,0-4.9,0-7.2,0c-15.6-0.2-26-10.6-26-26.1c0-37.8,0-75.7,0-113.5c0-1.7,0-3.3,0-5
		c0.4,0.3,0.8,0.6,1.2,0.8c3.5-4,8.1-7.5,10.2-12.2c2.3-4.9,2.2-10.9,3.2-16.8c2-0.3,4.5-0.3,6.8-1.1c4.1-1.3,6.4-4.3,6.4-8.6
		c0-4.2-2.3-7.2-6.4-8.6c-4.3-1.4-8.5-0.1-9.8,3.6c-2.5,6.9-7.3,4.9-12,4.8C-0.6,16.4,6.9,8,17,6.9C27.5,5.8,37,12.7,38.5,22.7
		c1.5,9.5-2.3,16.9-10.9,21.5c-4.2,2.2-4.4,6.1-0.7,9.2c1.3,1.1,2.9,2.2,3.3,3.6c1.6,5.6,5.2,7.5,9.9,6.4c3.4,6.2,6.4,11.8,9.5,17.5
		c7.9-0.3,14.5-7.3,15-16.5c0.4-8-0.2-16.1,0.9-23.9c3.4-24.9,25.4-41.9,51.2-40.3C140.3,1.6,159.8,22,160.4,46
		c0.2,5.8-0.1,11.7,0.1,17.5c0.2,8.8,5.2,15.1,14.1,17.5c2-7,5.6-13.3,12.5-16.3c4.4-1.9,9.4-2.5,14.8-3.8c0,17.2,0,33,0,49.5
		c-13.7,0-27.3,0-40.9,0c-1,4.8-0.4,8.4,3.1,11.2c5.8,4.7,7.8,10.7,7.1,18.1c-0.5,5.4-0.1,11-0.1,15.9c4.4,2.5,8.8,4.4,12.3,7.2
		c5.3,4.2,8.2,10.2,8.2,17c0.1,28,0.1,56,0,84c0,0.6-0.2,1.3-0.5,2.4C138.8,266.3,86.4,266.3,33.6,266.3z M182.3,89.2
		c-15.7,2.3-29.4-9-29.8-24.4c-0.2-6,0.1-12-0.1-18c-0.5-20.5-17.2-37.7-37.8-38.8C94.1,7,75.6,22.2,73.3,42.8
		c-0.9,7.9-0.2,16-0.9,23.9C71.6,78,63.3,87,52.2,89.1c-3.4,0.7-6.8,0.7-10.4,1.1c0,4,0,7.7,0,11.7c7.7,0,15.1,0,22.4,0
		c2.3-16.6,10.9-25.5,25-25.8c15.7-0.2,31.3-0.2,47,0c11.6,0.2,21.2,8.1,23.8,19.3c0.5,2.1,0.6,4.2,0.9,6.5c11.1,0,22,0,33,0
		c0-10.5,0-20.6,0-31.3C184.7,74.1,182.1,81,182.3,89.2z M108.8,177c1.2-3.6-1.2-8.7,4.3-8.9c6.3-0.2,3.2,5.7,4.7,8.7
		c1.7,0,3.4,0,5.5,0c0-2.5,0-4.7,0-6.8c-0.1-2.8,0.8-5.6,4-4.8c1.6,0.4,3.3,3.1,3.9,5.1c0.7,2,0.1,4.5,0.1,7
		c2.2-0.1,3.6-0.2,5.7-0.3c0-4.5-0.4-8.9,0.2-13.1c0.3-2,2.1-5,3.7-5.3c3.2-0.6,4.4,2.2,4.3,5.2c-0.1,4.3,0,8.6,0,13.1
		c2.1,0,3.7,0,5.9,0c0-6.9-0.2-13.5,0.2-20.1c0.1-1.6,2.3-3,3.5-4.5c1.4,1.2,3.1,2.2,4.1,3.7c0.7,1.1,0.3,2.9,0.3,4.4
		c0,5.5,0,10.9,0,16.4c0.6,0.2,1.2,0.5,1.8,0.7c0.7-1.3,2-2.5,2-3.8c0.2-12.8,0.1-25.7,0-38.5c0-1.4-0.7-2.8-1.1-4.2
		c-1.2,1.1-1.4,2.1-1.3,3c0.4,10.2-0.4,10-10.4,9.9c-1.3,0-2.7-0.2-4,0c-7.2,1.3-12.4-1.8-16.8-7.3c-1.8-2.3-3.4-4.6-1-6.9
		c2.5-2.4,5.1-1.1,6.8,1.3c4.5,6.4,10.8,4.9,17.3,4.4c0-7.1,0-13.7,0-20.4c0-6.3-0.7-6.9-7.6-6.9c-0.1,0.4-0.3,0.9-0.4,1.4
		c-2.5,8.2-9.2,13.1-16.7,11.9c-8.2-1.3-13.2-7.3-13.3-16.1c0-1.3-0.1-2.7,0-4c0.4-2.9-0.9-4-3.7-4.8c-8.6-2.5-17.3-4.9-25.7-8.1
		c-5.2-2-8.4-0.2-9.9,4.1c-1.6,4.7-2.3,9.9-2.5,15c-0.4,9.2-0.1,18.5-0.1,27.9c7.1,0.7,13.5,1.6,17.9-5.1c0.4-0.7,1.3-1.5,1.9-1.5
		c1.7,0,4-0.2,4.8,0.8c0.9,1,1.1,3.9,0.3,4.8c-4.4,5-8.4,11.1-16.8,9.4c-1.8-0.4-3.7-0.1-5.5-0.1c-10.5,0-10.5,0-10.8-10.2
		c0-0.8-0.2-1.5-0.4-2.5c-1.9,2.8-2.6,43.9-0.8,46.1c1.2-0.1,2.6-0.3,4.3-0.5c0-5.8,0-11.3,0-16.8c0-3.3-0.6-7.5,4.2-7.5
		c4.6,0,3.9,4.1,3.9,7.2c0,5.6,0,11.3,0,17.1c2.2,0,3.9,0,5.9,0c0-4.2,0-8,0-11.9c0-3.1-0.1-6.6,4.1-6.5c4.2,0.1,4,3.7,4,6.7
		c0,3.9,0,7.8,0,11.8c2.3,0,3.8,0,5.7,0c0-2.7-0.5-5.3,0.2-7.6c0.6-1.7,2.7-3,4.1-4.5c1.3,1.5,3.1,2.7,3.6,4.4
		c0.6,2.3,0.2,4.9,0.2,7.6C105.6,177,107.2,177,108.8,177z M54.3,165.7c-1.1,0.1-1.6,0-2.1,0.2c-0.6,0.2-1.3,0.4-1.8,0.8
		c-6.6,3.6-8.9,9.5-8.9,16.7c0,23.8,0,47.7,0,71.5c0,1,0.2,1.9,0.3,3c0.9,0.2,1.5,0.4,2.1,0.4c14,0,28,0.1,42-0.1
		c1.4,0,3.6-2.1,4.1-3.6c3.5-10.9,6.7-22,9.7-33c0.5-1.9,0.3-4.3-0.4-6.1c-3.3-8.5-7.2-16.8-10.4-25.4c-1.3-3.4-3.2-4.6-6.6-4.5
		c-7.2,0.1-14.3-0.1-21.5,0.1c-4.6,0.1-6.9-1.4-6.5-6.4C54.5,174.8,54.3,170.5,54.3,165.7z M171.2,165.3c0,5,0,9.2,0,13.3
		c-0.1,5.7-1,6.7-6.7,6.8c-7.3,0.1-14.6-0.1-21.9,0.3c-1.7,0.1-4,1.7-4.7,3.2c-4,8.9-7.8,18-11.4,27.2c-0.6,1.5-0.7,3.6-0.2,5.2
		c3.2,11.2,6.6,22.3,9.7,33.6c0.8,2.9,2.2,3.5,4.9,3.5c12.2-0.1,24.3,0,36.5,0c1.9,0,3.9,0,6.1,0c0-27,0.3-53.3-0.2-79.5
		C183.1,172.2,178.5,167.8,171.2,165.3z M33,200.2c0-36.8,0-73.3,0-109.6c-8.3,0-16.2,0-24.2,0c-0.1,1.4-0.3,2.3-0.3,3.3
		c0,29.8,0,59.6,0,89.4c0,1.3,0.1,2.7,0.4,3.9C11.2,197.4,19.7,202,33,200.2z M128.2,258c-3.2-11-6.1-21.5-9.4-31.7
		c-1.9-5.7-1.7-10.8,0.9-16.3c3.7-7.7,6.7-15.7,10.2-24.2c-11.6,0-22.3,0-33.7,0c2.5,5.9,4.2,11.7,7.1,16.8
		c5.9,10.5,6.2,20.7,1.6,31.8c-3.1,7.4-4.6,15.5-7,23.7C108.2,258,117.8,258,128.2,258z M54.3,156.1c0-5,0.4-10.6-0.1-16
		c-0.7-7.7,1-14.1,7.2-19c3.4-2.7,3.7-6.3,2.6-10.2c-7.5,0-14.9,0-22.2,0c0,17.2,0,33.9,0,50.8C46,159.8,49.9,158.1,54.3,156.1z
		 M101.2,84.1c-0.1,0.3-0.1,0.7-0.2,1c17,5.3,33.9,10.5,51.1,15.9c0-9.8-6.9-16.6-17-16.8C123.8,83.9,112.5,84.1,101.2,84.1z
		 M33.3,71.9c-8.6,0-16.5,0-24.5,0c0,3.6,0,6.7,0,9.8c8.3,0,16.3,0,24.5,0C33.3,78.3,33.3,75.2,33.3,71.9z M23.8,64.4
		c0.4-0.5,0.7-1,1.1-1.6c-1.9-1.2-3.7-3.3-5.7-3.5c-2.7-0.3-4.7,1.5-4.9,5.1C17.7,64.4,20.7,64.4,23.8,64.4z"/>
	<path fill="#FFFFFF" d="M182.3,89.2c-0.1-8.3,2.5-15.1,11.6-18.6c0,10.7,0,20.9,0,31.3c-11,0-21.9,0-33,0c-0.3-2.3-0.4-4.5-0.9-6.5
		c-2.5-11.1-12.1-19.1-23.8-19.3c-15.7-0.2-31.3-0.2-47,0c-14.1,0.2-22.7,9.2-25,25.8c-7.3,0-14.7,0-22.4,0c0-3.9,0-7.7,0-11.7
		c3.6-0.4,7-0.4,10.4-1.1C63.3,87,71.6,78,72.4,66.7c0.6-8,0-16,0.9-23.9C75.6,22.2,94.1,7,114.6,8.1c20.6,1.1,37.3,18.2,37.8,38.8
		c0.1,6-0.1,12,0.1,18C152.9,80.2,166.6,91.6,182.3,89.2z M113.3,51.4c4.5,4.8,8.2,8.6,11.8,12.4c2.1,2.2,4.7,3.8,7.3,1.2
		c2.6-2.6,1-5.2-1.3-7.3c-3.9-3.6-7.8-7.1-12.6-11.4c4.9-4.5,8.8-8.1,12.6-11.7c2.3-2.1,3.8-4.7,1.3-7.3c-2.6-2.7-5.1-1.1-7.2,1.2
		c-3.7,3.9-7.5,7.8-11.8,12.3c-4.3-4.6-7.9-8.5-11.6-12.3c-2.1-2.2-4.6-3.9-7.3-1.2c-2.6,2.7-1,5.2,1.3,7.3
		c3.9,3.8,7.9,7.5,12.1,11.5c-4.4,4.3-8.1,7.9-11.8,11.5c-2.3,2.2-4.5,4.7-1.5,7.6c2.9,2.7,5.5,0.6,7.7-1.7
		C105.8,59.6,109.3,55.8,113.3,51.4z"/>
	<path fill="#FFFFFF" d="M108.8,177c-1.7,0-3.2,0-5.4,0c0-2.7,0.5-5.3-0.2-7.6c-0.5-1.7-2.3-2.9-3.6-4.4c-1.4,1.5-3.5,2.7-4.1,4.5
		c-0.7,2.2-0.2,4.9-0.2,7.6c-1.9,0-3.4,0-5.7,0c0-4,0-7.9,0-11.8c0-3,0.2-6.6-4-6.7c-4.2-0.1-4.2,3.4-4.1,6.5c0,3.8,0,7.6,0,11.9
		c-2,0-3.6,0-5.9,0c0-5.8,0-11.5,0-17.1c0-3.1,0.7-7.2-3.9-7.2c-4.8,0-4.2,4.2-4.2,7.5c0,5.5,0,11,0,16.8c-1.7,0.2-3.1,0.3-4.3,0.5
		c-1.8-2.2-1.1-43.3,0.8-46.1c0.1,1,0.3,1.8,0.4,2.5C64.8,144,64.8,144,75.3,144c1.8,0,3.7-0.3,5.5,0.1c8.3,1.7,12.3-4.4,16.8-9.4
		c0.8-0.9,0.6-3.8-0.3-4.8c-0.9-1-3.2-0.8-4.8-0.8c-0.6,0-1.5,0.8-1.9,1.5c-4.3,6.7-10.8,5.8-17.9,5.1c0-9.4-0.3-18.7,0.1-27.9
		c0.2-5,0.9-10.2,2.5-15c1.4-4.3,4.7-6.1,9.9-4.1c8.4,3.2,17,5.6,25.7,8.1c2.7,0.8,4,1.9,3.7,4.8c-0.2,1.3,0,2.7,0,4
		c0.1,8.8,5.1,14.8,13.3,16.1c7.4,1.1,14.2-3.7,16.7-11.9c0.1-0.5,0.3-0.9,0.4-1.4c7,0,7.6,0.5,7.6,6.9c0,6.7,0,13.3,0,20.4
		c-6.5,0.4-12.8,2-17.3-4.4c-1.7-2.4-4.4-3.7-6.8-1.3c-2.5,2.4-0.9,4.6,1,6.9c4.4,5.5,9.6,8.5,16.8,7.3c1.3-0.2,2.7,0,4,0
		c10,0.1,10.8,0.3,10.4-9.9c0-0.9,0.2-1.8,1.3-3c0.4,1.4,1.1,2.8,1.1,4.2c0.1,12.8,0.1,25.7,0,38.5c0,1.3-1.3,2.5-2,3.8
		c-0.6-0.2-1.2-0.5-1.8-0.7c0-5.5,0-10.9,0-16.4c0-1.5,0.3-3.3-0.3-4.4c-0.9-1.5-2.7-2.5-4.1-3.7c-1.2,1.5-3.4,2.9-3.5,4.5
		c-0.4,6.6-0.2,13.3-0.2,20.1c-2.2,0-3.8,0-5.9,0c0-4.5-0.1-8.8,0-13.1c0-3.1-1.1-5.8-4.3-5.2c-1.5,0.3-3.4,3.3-3.7,5.3
		c-0.6,4.2-0.2,8.6-0.2,13.1c-2,0.1-3.5,0.2-5.7,0.3c0-2.5,0.5-5-0.1-7c-0.6-2-2.2-4.7-3.9-5.1c-3.2-0.7-4,2-4,4.8
		c0,2.1,0,4.3,0,6.8c-2.1,0-3.8,0-5.5,0c-1.5-3.1,1.7-8.9-4.7-8.7C107.6,168.3,110,173.4,108.8,177z M117.4,135.2
		c0.6-0.1,1.3-0.3,1.9-0.4c2.8-0.3,5.4-1.7,4.5-4.5c-0.5-1.6-3.4-3.2-5.4-3.4c-3.7-0.5-7.6-0.2-11.4-0.2c-2.6,0-5.2,0-5.5,3.5
		c-0.3,3.3,1.9,4.2,4.6,4.6c0.7,0.1,1.4,0.4,2.2,0.6c-1.8,6.2-6.6,6.7-11.6,6.9c-1.2,7.5,0.8,13.4,7,17.5c5.4,3.6,13,3.5,18.3-0.3
		c5.8-4.2,7.6-10,6.9-16.9C119.7,141.2,118.8,140.6,117.4,135.2z M107.3,112.2c0.2,0,0.4-0.1,0.5-0.1c-0.5-2.7-0.1-6-1.6-7.9
		c-5.6-7.4-21.4-7.3-27.4-0.1c-1,1.2-1.2,4.1-0.4,5.1c0.8,1,3.4,1.2,5.1,0.8c1.8-0.4,3.3-2.2,5.2-2.8c6.8-2.5,10.7,0.3,10.8,7.4
		c0,1.2-0.4,2.6,0.1,3.4c1,1.5,2.5,3.6,3.8,3.6c1.3,0,3.2-2,3.8-3.5C107.8,116.4,107.3,114.2,107.3,112.2z"/>
	<path fill="#FFFFFF" d="M54.3,165.7c0,4.8,0.2,9.1-0.1,13.4c-0.3,4.9,1.9,6.5,6.5,6.4c7.1-0.2,14.3,0,21.5-0.1
		c3.4,0,5.3,1.1,6.6,4.5c3.2,8.6,7.1,16.9,10.4,25.4c0.7,1.8,1,4.3,0.4,6.1c-3,11.1-6.2,22.1-9.7,33c-0.5,1.5-2.7,3.6-4.1,3.6
		c-14,0.3-28,0.1-42,0.1c-0.6,0-1.3-0.2-2.1-0.4c-0.1-1.1-0.3-2-0.3-3c0-23.8,0-47.7,0-71.5c0-7.1,2.2-13.1,8.9-16.7
		c0.6-0.3,1.2-0.6,1.8-0.8C52.7,165.8,53.2,165.8,54.3,165.7z M71.2,243.7C71.2,243.7,71.2,243.8,71.2,243.7c2.5,0,5.2,0.6,7.4-0.2
		c1.8-0.6,3-2.8,4.5-4.3c-1.5-1.3-2.8-3.6-4.4-3.8c-4.7-0.5-9.6-0.5-14.4,0c-1.5,0.2-3.8,2.6-3.8,4c0,1.4,2.2,3.5,3.8,4.1
		C66.3,244.3,68.8,243.7,71.2,243.7z M80.3,222.7C80.3,222.7,80.3,222.7,80.3,222.7c2.5,0,5.2,0.6,7.4-0.2c1.6-0.5,3.5-2.5,3.7-4.1
		c0.2-1.1-2.1-3.7-3.4-3.8c-5.1-0.4-10.3-0.4-15.4,0c-1.3,0.1-3.2,2.6-3.2,4c0,1.4,2,3.5,3.4,3.9C75.1,223.2,77.8,222.7,80.3,222.7z
		 M76.4,201.7c2.5,0,5.1,0.5,7.4-0.2c1.5-0.4,3.5-2.4,3.6-3.7c0.1-1.4-1.8-4-3-4.1c-5.3-0.5-10.6-0.5-15.9,0
		c-1.2,0.1-3.2,2.7-3.1,4.1c0.1,1.4,2.1,3.4,3.6,3.8C71.2,202.2,73.9,201.7,76.4,201.7z"/>
	<path fill="#FFFFFF" d="M171.2,165.3c7.3,2.5,12,6.9,12.1,13.4c0.4,26.3,0.2,52.6,0.2,79.5c-2.2,0-4.1,0-6.1,0
		c-12.2,0-24.3-0.1-36.5,0c-2.7,0-4.1-0.6-4.9-3.5c-3.1-11.2-6.6-22.4-9.7-33.6c-0.5-1.6-0.4-3.7,0.2-5.2
		c3.6-9.1,7.3-18.2,11.4-27.2c0.7-1.5,3-3.1,4.7-3.2c7.3-0.4,14.6-0.2,21.9-0.3c5.6-0.1,6.6-1.1,6.7-6.8
		C171.2,174.5,171.2,170.3,171.2,165.3z M144,214.3C144,214.4,144,214.4,144,214.3c-2.6,0-5.4-0.4-7.9,0.2c-1.5,0.4-3.6,2.6-3.4,3.8
		c0.2,1.6,2.1,4.1,3.5,4.2c4.9,0.5,9.9,0.5,14.9,0c1.5-0.2,3.8-2.7,3.8-4c0-1.4-2.3-3.4-3.9-4C148.8,213.8,146.3,214.3,144,214.3z
		 M147.2,201.8C147.2,201.8,147.2,201.8,147.2,201.8c2.5,0,5.1,0.5,7.4-0.1c1.7-0.5,4.1-2.4,4.2-3.7c0.1-1.4-2.1-4.1-3.6-4.3
		c-5.1-0.5-10.3-0.5-15.3,0c-1.3,0.1-3.1,2.8-3.3,4.4c-0.1,1.1,2.1,3.1,3.7,3.5C142.4,202.2,144.9,201.8,147.2,201.8z M152.2,243.8
		c2.5,0,5.1,0.5,7.4-0.2c1.7-0.5,4-2.5,4.1-3.9c0.1-1.4-2.3-4-3.8-4.1c-4.9-0.5-9.9-0.5-14.8,0c-1.4,0.2-3.7,2.7-3.7,4.1
		c0.1,1.4,2.2,3.4,3.9,4C147.4,244.3,149.9,243.7,152.2,243.8z"/>
	<path fill="#FFFFFF" d="M33,200.2c-13.3,1.8-21.8-2.8-24.1-13c-0.3-1.3-0.4-2.6-0.4-3.9c0-29.8,0-59.6,0-89.4c0-1,0.2-2,0.3-3.3
		c8,0,15.9,0,24.2,0C33,126.9,33,163.4,33,200.2z"/>
	<path fill="#FFFFFF" d="M128.2,258c-10.4,0-20,0-30.2,0c2.4-8.2,3.9-16.2,7-23.7c4.6-11.1,4.3-21.3-1.6-31.8
		c-2.9-5.1-4.7-10.9-7.1-16.8c11.3,0,22.1,0,33.7,0c-3.5,8.5-6.6,16.5-10.2,24.2c-2.6,5.5-2.8,10.6-0.9,16.3
		C122.1,236.6,124.9,247,128.2,258z"/>
	<path fill="#FFFFFF" d="M54.3,156.1c-4.4,2-8.3,3.8-12.5,5.7c0-16.9,0-33.6,0-50.8c7.3,0,14.7,0,22.2,0c1.1,3.9,0.9,7.5-2.6,10.2
		c-6.2,4.9-7.9,11.3-7.2,19C54.7,145.5,54.3,151,54.3,156.1z"/>
	<path fill="#FFFFFF" d="M101.2,84.1c11.3,0,22.6-0.2,33.9,0.1c10.1,0.2,17,7,17,16.8C135,95.7,118,90.4,101,85.2
		C101.1,84.8,101.1,84.5,101.2,84.1z"/>
	<path fill="#FFFFFF" d="M33.3,71.9c0,3.3,0,6.4,0,9.8c-8.1,0-16.1,0-24.5,0c0-3.2,0-6.3,0-9.8C16.7,71.9,24.7,71.9,33.3,71.9z"/>
	<path fill="#FFFFFF" d="M23.8,64.4c-3,0-6.1,0-9.5,0c0.1-3.5,2.2-5.4,4.9-5.1c2,0.2,3.8,2.3,5.7,3.5C24.5,63.3,24.1,63.8,23.8,64.4
		z"/>
	<path d="M113.3,51.4c-4,4.4-7.5,8.3-10.9,12c-2.1,2.3-4.7,4.5-7.7,1.7c-3.1-2.8-0.8-5.4,1.5-7.6c3.7-3.6,7.4-7.2,11.8-11.5
		c-4.2-4-8.2-7.8-12.1-11.5c-2.2-2.1-3.9-4.6-1.3-7.3c2.6-2.7,5.2-1,7.3,1.2c3.6,3.9,7.3,7.8,11.6,12.3c4.3-4.5,8.1-8.4,11.8-12.3
		c2.2-2.3,4.7-3.9,7.2-1.2c2.5,2.6,0.9,5.2-1.3,7.3c-3.9,3.6-7.8,7.2-12.6,11.7c4.8,4.3,8.7,7.9,12.6,11.4c2.3,2.1,3.9,4.6,1.3,7.3
		c-2.6,2.6-5.2,1.1-7.3-1.2C121.5,60,117.8,56.1,113.3,51.4z"/>
	<path d="M117.4,135.2c1.4,5.4,2.3,6,11.6,7.4c0.7,6.8-1.1,12.7-6.9,16.9c-5.4,3.8-12.9,3.9-18.3,0.3c-6.2-4.1-8.2-10-7-17.5
		c5-0.2,9.8-0.7,11.6-6.9c-0.8-0.2-1.5-0.5-2.2-0.6c-2.7-0.4-4.9-1.3-4.6-4.6c0.3-3.5,2.9-3.5,5.5-3.5c3.8,0,7.7-0.4,11.4,0.2
		c2,0.3,5,1.8,5.4,3.4c0.9,2.9-1.7,4.3-4.5,4.5C118.6,134.9,118,135.1,117.4,135.2z M112.6,145.1c-2.4,1.5-4.7,3-7,4.5
		c3.8,6.3,9.8,6.3,13.8,0C117.2,148.2,114.9,146.6,112.6,145.1z"/>
	<path d="M107.3,112.2c0,2,0.5,4.2-0.2,5.9c-0.6,1.5-2.5,3.6-3.8,3.5c-1.3,0-2.8-2.1-3.8-3.6c-0.5-0.8-0.1-2.3-0.1-3.4
		c0-7.1-3.9-9.9-10.8-7.4c-1.8,0.7-3.3,2.4-5.2,2.8c-1.6,0.4-4.3,0.2-5.1-0.8c-0.8-1.1-0.6-4,0.4-5.1c6-7.2,21.8-7.3,27.4,0.1
		c1.5,1.9,1.1,5.2,1.6,7.9C107.7,112.1,107.5,112.2,107.3,112.2z"/>
	<path d="M71.2,243.7c-2.3,0-4.8,0.5-6.9-0.2c-1.6-0.6-3.8-2.6-3.8-4.1c0-1.4,2.3-3.8,3.8-4c4.7-0.5,9.6-0.5,14.4,0
		c1.6,0.2,2.9,2.5,4.4,3.8c-1.5,1.5-2.7,3.7-4.5,4.3C76.3,244.3,73.6,243.8,71.2,243.7C71.2,243.8,71.2,243.7,71.2,243.7z"/>
	<path d="M80.3,222.7c-2.5,0-5.1,0.5-7.4-0.2c-1.5-0.4-3.4-2.5-3.4-3.9c0-1.4,1.9-3.9,3.2-4c5.1-0.5,10.3-0.5,15.4,0
		c1.3,0.1,3.6,2.7,3.4,3.8c-0.2,1.6-2.1,3.6-3.7,4.1C85.4,223.3,82.8,222.7,80.3,222.7C80.3,222.7,80.3,222.7,80.3,222.7z"/>
	<path d="M76.4,201.7c-2.5,0-5.1,0.5-7.4-0.2c-1.5-0.4-3.5-2.4-3.6-3.8c-0.1-1.4,1.9-4,3.1-4.1c5.3-0.5,10.6-0.4,15.9,0
		c1.2,0.1,3.1,2.8,3,4.1c-0.1,1.4-2.1,3.3-3.6,3.7C81.5,202.2,78.9,201.7,76.4,201.7z"/>
	<path d="M144,214.3c2.3,0,4.8-0.5,6.9,0.2c1.7,0.6,3.9,2.6,3.9,4c0,1.4-2.3,3.9-3.8,4c-4.9,0.5-9.9,0.5-14.9,0
		c-1.4-0.1-3.3-2.6-3.5-4.2c-0.1-1.2,2-3.4,3.4-3.8C138.5,213.9,141.3,214.4,144,214.3C144,214.4,144,214.4,144,214.3z"/>
	<path d="M147.2,201.8c-2.3,0-4.8,0.5-6.9-0.2c-1.5-0.4-3.8-2.4-3.7-3.5c0.1-1.6,1.9-4.3,3.3-4.4c5.1-0.5,10.3-0.6,15.3,0
		c1.4,0.1,3.6,2.8,3.6,4.3c-0.1,1.3-2.5,3.2-4.2,3.7C152.3,202.3,149.7,201.8,147.2,201.8C147.2,201.8,147.2,201.8,147.2,201.8z"/>
	<path d="M152.2,243.8c-2.3,0-4.8,0.5-6.9-0.2c-1.7-0.5-3.8-2.5-3.9-4c-0.1-1.4,2.2-3.9,3.7-4.1c4.9-0.5,9.9-0.5,14.8,0
		c1.5,0.2,3.8,2.7,3.8,4.1c-0.1,1.4-2.4,3.4-4.1,3.9C157.3,244.3,154.7,243.8,152.2,243.8z"/>
	<path fill="#FFFFFF" d="M112.6,145.1c2.3,1.5,4.6,3,6.8,4.6c-4.1,6.3-10,6.2-13.8,0C108,148.1,110.3,146.6,112.6,145.1z"/>
</g>
</svg>
