<?xml version="1.0" encoding="utf-8"?>
<!-- Generator: Adobe Illustrator 19.1.0, SVG Export Plug-In . SVG Version: 6.00 Build 0)  -->
<svg version="1.1" id="Layer_1" xmlns="http://www.w3.org/2000/svg" xmlns:xlink="http://www.w3.org/1999/xlink" x="0px" y="0px"
	 viewBox="-336 143.9 286.5 275.1" enable-background="new -336 143.9 286.5 275.1" xml:space="preserve">
<g>
	<defs>
		<rect id="SVGID_1_" x="-121.7" y="263.7" width="196" height="252.4"/>
	</defs>
	<clipPath id="SVGID_2_">
		<use xlink:href="#SVGID_1_"  overflow="visible"/>
	</clipPath>
	<g clip-path="url(#SVGID_2_)">
		<path d="M-174,303.8c-10.7,0-10.6,0-11.2,10.3c-0.2,3.7,0.6,5.3,4.8,5.2c12.2-0.2,24.3-0.1,36.5,0c8.4,0.1,15,3.7,20.6,9.8
			c1.6,1.7,4.1,3.2,6.4,3.5c28.1,3.6,47.4,25.1,47.4,53.4c0,8.7,0,17.3,0,26c0,1.4-0.2,2.9-0.3,4.3c-12,0-23.6,0-35.6,0
			c-0.1-2-0.2-3.8-0.2-5.6c-0.1-8.5,0.1-17-0.1-25.5c-0.2-7.9-4.3-13.4-11.8-15.2c0,15.5,0,30.9,0,46.3c-58,0-115.4,0-173.2,0
			c0-17.1,0-33.7,0-50.4c-2-0.4-3.6-0.8-5.2-1.1c-22.9-4.6-39.7-22.3-42.1-45.5c-1-9.6-0.5-19.3-0.4-29c0.1-3.6-1.7-7.9,3.3-10
			c0.4-0.1,0.3-1.5,0.4-2.2c-15.3-6.1-21.6-13.8-21.3-26.6c7.1-1,14.3-2.1,20.2-2.9c2.1,2.8,3.6,4.7,5.2,6.5
			c0.1,0.1,1.6-1.2,2.5-1.9c-1.5-2-3.1-4-5.1-6.6c2.3-5.8,4.9-12.5,7.6-19.3c8.6,2.4,14.7,6.9,18.1,14.5c4.5,10.1,2.3,19.5-3.5,27.2
			c2.3,4.6,3.5,9.3,6.5,12.2c4.2,4.1,1.6,8.5,2,12.6c0.6,6.5,0,13,0.2,19.5c0.2,8.1,5.4,14.5,12.8,15.8c1.9,0.3,4.7,0,5.9-1.2
			c6.6-6.6,14.5-8.9,23.6-8.7c11.3,0.2,22.7,0.1,34-0.1c1.5-0.1,4.1-1.5,4.2-2.5c0.5-4,0.2-8.1,0.2-12.8c-2.5,0-4.3,0-6.1,0
			c-12,0-24-0.1-36,0c-2.7,0-4.3-0.5-4.3-3.8c0.2-21.7-0.2-43.4,0.3-65c0.4-15.4,11.7-25.9,27.1-26.5c2.5-0.1,5,0.1,7.5-0.1
			c1.2-0.1,2.8-0.5,3.4-1.4c5.1-7.6,12.3-12,21.3-13.9c0-6.7,0.2-13.2-0.1-19.7c-0.1-1.7-1.4-3.9-2.8-4.9c-6-4.2-8.6-10.4-6.8-16.9
			c1.8-6.2,7.6-10.5,14.2-10.5c6.6,0,12.3,4.3,14,10.6c1.8,6.4-0.9,12.6-7,16.7c-1.2,0.8-2.6,2.4-2.6,3.6c-0.2,7-0.1,14-0.1,19.5
			c6.2,3.9,12.7,6.1,16.6,10.6c4.6,5.3,9.2,7.2,15.8,6.5c2.1-0.2,4.3,0.3,6.4,0.8c11.1,2.6,20.1,12.4,20.3,23.8
			c0.5,22.8,0.2,45.7,0.2,68.5c0,0.4-0.2,0.9-0.6,2C-152.1,303.7-163.1,303.7-174,303.8z M-138.8,407.3c1.3-11.4,5.1-21.6,11.7-30.9
			c0.9-1.2,0.8-3.2,0.8-4.8c0-8.4,0-16.7-0.1-25c-0.1-10.7-7.4-18.4-18.1-18.5c-15.2-0.1-30.3,0.1-45.5,0.1
			c-23.6,0-47.3-0.1-70.9-0.1c-13.8,0-20.7,6.8-20.7,20.4c0,2.8,0.2,5.7,0,8.5c-0.7,10.5,0,20.4,6.4,29.8c3.7,5.5,4.5,13.1,6.9,20.5
			C-225.6,407.3-182.4,407.3-138.8,407.3z M-165.5,294.7c3.5-9.9,4.9-20.3,10.4-27.8c8-11.2,6.2-22.7,5.5-34.3
			c-0.4-8.5-8.2-15-17.2-15.1c-24.8-0.2-49.6-0.2-74.4,0c-9.9,0.1-17.2,7.4-17.7,17.4c-0.4,7.5-0.2,15-0.1,22.5
			c0,1.4,0.5,3.1,1.3,4.2c7,9.7,10.6,20.6,11.4,33C-218.5,294.6-191.3,294.6-165.5,294.7z M-78.2,388c-0.6-5.5-1.1-10.6-1.8-16.5
			c-5.7,2.7-10.9,4.3-15.1,7.3c-1.9,1.4-1.6,5.6-2.5,9.2C-90.3,388-84.7,388-78.2,388z M-329.6,268.8c7-0.6,13-5.5,14.8-12.2
			c1.7-6.5-0.5-12.8-7.3-17.6c0.5,3.1,0.5,5.3,1.3,6.9c3,5.8,2.1,12-2.7,15.7c-4.9,3.8-10.8,3.2-15.9-1.1c-1.4-1.2-3.5-1.5-5.3-2.2
			C-342.1,265.8-336.3,269.3-329.6,268.8z M-329.8,310.2c0.6,5.4,1.2,10.5,1.8,16.5c5.8-2.7,11-4.4,15.1-7.4
			c1.8-1.4,1.6-5.6,2.5-9.2C-317.7,310.1-323.3,310.1-329.8,310.2z M-104.4,365.8c1.9,5.3,4.9,5.6,9.2,3c3.4-2.1,7.1-3.4,11.6-5.5
			c-3.7-4.4-6.9-8.2-10.6-12.6C-98,356.3-101.3,361.1-104.4,365.8z M-312.5,329.2c-3.4,2.1-7.2,3.5-11.7,5.6
			c3.5,4.3,6.6,8.1,10.4,12.7c3.8-5.7,7.1-10.6,10.3-15.3C-305.5,327.4-308.3,326.5-312.5,329.2z M-117.2,341.2
			c0,6.2-0.1,11.6,0.1,17c0.1,0.9,1.5,2.1,2.5,2.4c0.9,0.2,2.7-0.2,3.2-0.9c3.2-4.2,6-8.6,9.6-14
			C-107.3,344.1-111.8,342.8-117.2,341.2z M-329.4,300.5c6,0,11.8,0,17.9,0c0-3.3,0-6.4,0-9.8c-5.9,0-11.7,0-17.9,0
			C-329.4,294.1-329.4,297.1-329.4,300.5z M-290.6,340.9c-0.1-1.1-1.2-2.9-2.1-3.2c-1.2-0.4-3.4,0.1-4.1,1c-3.1,4-5.8,8.3-9.3,13.5
			c5.1,1.6,9.6,3.1,15.5,4.9C-290.6,350.7-290.5,345.7-290.6,340.9z M-96.5,407.3c6,0,11.7,0,17.7,0c0-3.2,0-6.3,0-9.7
			c-5.8,0-11.6,0-17.7,0C-96.5,400.8-96.5,403.9-96.5,407.3z M-218.2,208.1c9.6,0,18.8,0,29,0C-198.6,200-210.8,200.1-218.2,208.1z
			 M-209.4,155.6c-0.6,3.4,1.9,5.6,5.4,5.6s6-2.1,5.5-5.5c-0.4-2.3-2.7-4.3-4.2-6.5c-0.8,0-1.6,0-2.4,0
			C-206.6,151.3-209,153.3-209.4,155.6z M-155.1,294c4.4,1.7,6.3,1.1,6.1-3.4c-0.2-4.7,0-9.5,0-14.2c-0.6-0.1-1.3-0.1-1.9-0.2
			C-152.3,282.1-153.6,287.9-155.1,294z M-212.8,304.6c2.4,3.1,14.5,3.5,18.3,0C-200.4,304.6-206.4,304.6-212.8,304.6z
			 M-257.9,279.4c-2.3,9-1.5,14.3,2.9,15.5C-255.9,289.6-256.8,285.2-257.9,279.4z M-315.1,281.2c-0.3-3.5-2.3-5.2-5.2-4.8
			c-2.1,0.3-4,2.1-6,3.3c0.3,0.5,0.5,1,0.8,1.5C-322.1,281.2-318.7,281.2-315.1,281.2z M-212.5,316.6c0,0.4,0,0.9,0,1.4
			c6,1.5,12,0.7,18,0.6c0-0.7,0-1.3,0-2C-200.5,316.6-206.4,316.6-212.5,316.6z M-129.3,405.1c-0.1,0.6,0.7,1.5,1.1,2.2
			c0.6-0.7,1.7-1.3,1.8-2.1c0.2-2.9,0.1-5.8,0.1-8.7c-0.3-0.1-0.7-0.1-1.1-0.2C-128.1,399.3-128.8,402.2-129.3,405.1z M-281.6,405.5
			c0,0.7,1,1.3,1.5,2c0.5-0.9,1.5-1.8,1.4-2.5c-0.5-2.9-1.2-5.7-1.9-8.5c-0.3,0-0.7,0.1-1.1,0.1
			C-281.7,399.6-281.8,402.5-281.6,405.5z"/>
		<path d="M-279.7,243.5c0-3.1,0.9-5.5,4.3-5.6c3.4-0.1,4.7,2.3,4.7,5.3c0.1,10.3,0.1,20.6,0,30.9c0,3-1.1,5.4-4.6,5.3
			s-4.3-2.5-4.3-5.5c0-5.2,0-10.3,0-15.5C-279.6,253.4-279.6,248.4-279.7,243.5z"/>
		<path d="M-135.7,243.2c0-3,1-5.4,4.4-5.4c3.3,0,4.5,2.4,4.5,5.4c0,10.3,0.1,20.6,0,30.9c0,3-1.3,5.8-4.6,5c-1.7-0.4-3.8-3.1-4-4.9
			c-0.6-5.1-0.2-10.2-0.2-15.4C-135.6,253.6-135.6,248.5-135.7,243.2z"/>
		<path fill="#FFFFFF" d="M-275.2,386.8c-6.4-9.4-7.1-19.3-6.4-29.8c0.2-2.8,0-5.7,0-8.5c0.1-13.6,6.9-20.4,20.7-20.4
			c23.6,0,47.3,0.1,70.9,0.1c15.2,0,30.4-0.3,45.5-0.1c10.7,0.1,18,7.8,18.1,18.5c0.1,8.4,0.1,16.7,0.1,25c0,1.6,0,3.6-0.8,4.8
			c-6.6,9.2-10.5,19.5-11.7,30.9c-43.7,0-86.9,0-129.5,0C-270.6,399.9-271.4,392.3-275.2,386.8z M-190.5,370.3
			c0.1,12.3,10.1,22.1,22.4,22s22.1-10,22-22.4c-0.1-12.4-10-22.1-22.4-22C-180.9,348-190.6,357.9-190.5,370.3z M-205.6,359.2
			c3.3,0,6.2-0.6,6.1-4.7c-0.1-3.8-2.9-4.3-6-4.3c-16.6,0-33.2,0-49.8,0c-3.3,0-6.2,0.6-6.1,4.7c0.2,3.7,3,4.3,6.1,4.3
			c8.5,0,16.9,0,25.4,0C-221.8,359.2-213.7,359.2-205.6,359.2z M-205.1,374.3c3.2,0,5.9-0.7,5.8-4.5c-0.1-3.4-2.7-4.3-5.6-4.3
			c-17,0-34,0-51,0c-2.9,0-5.5,1-5.5,4.4c-0.1,3.8,2.6,4.5,5.8,4.5c8.3,0,16.7,0,25,0C-222.1,374.4-213.6,374.4-205.1,374.3z
			 M-255.3,381c-3.2,0-6.3,0.4-6.2,4.6c0.1,3.8,3.1,4.3,6.1,4.3c16.7,0,33.3,0,50,0c3,0,6-0.6,6-4.4c0.1-4.2-3.1-4.5-6.3-4.5
			c-8.3,0-16.7,0-25,0C-238.9,381-247,381-255.3,381z"/>
		<path fill="#FFFFFF" d="M-257.7,261.5c-0.8-1.2-1.3-2.8-1.3-4.2c-0.1-7.5-0.3-15,0.1-22.5c0.4-9.9,7.8-17.3,17.7-17.4
			c24.8-0.2,49.6-0.2,74.4,0c8.9,0.1,16.7,6.6,17.2,15.1c0.7,11.7,2.5,23.2-5.5,34.3c-5.4,7.6-6.9,18-10.4,27.8c-25.8,0-53,0-80.8,0
			C-247.1,282.3-250.7,271.4-257.7,261.5z M-165.1,262.1c0-2.9-1.2-4.9-4.4-4.9c-3.2,0.1-4.2,2.2-4.4,5c-0.1,1.3-0.2,2.6-0.3,4.3
			c-19.6,0-39,0-58.8,0c-0.2-1.7,0.2-3.5-0.5-4.8c-1-1.8-2.8-3-4.3-4.5c-1.5,1.5-4.1,2.8-4.3,4.5c-0.6,4.4-0.2,8.9-0.2,13.7
			c25.8,0,51,0,77.1,0C-165.2,270.7-165.1,266.4-165.1,262.1z M-206,240.1c0.1-8.4-6.4-14.9-14.8-14.8c-8,0.1-14.5,6.7-14.5,14.7
			s6.5,14.5,14.6,14.5C-212.5,254.5-206.1,248.2-206,240.1z M-171.5,240.1c0.1-8.2-6.6-14.9-14.9-14.8c-8.1,0.1-14.4,6.6-14.4,14.7
			c0.1,8.2,6.4,14.5,14.6,14.5C-178.1,254.5-171.6,248.1-171.5,240.1z M-190.6,289.1c1.9-0.3,3.4-2.7,5.1-4.2
			c-1.7-1.5-3.3-4.2-5-4.3c-8.7-0.5-17.5-0.5-26.3,0c-1.6,0.1-3.1,2.9-4.7,4.5c1.7,1.4,3.2,3.7,5.1,4c4.2,0.6,8.6,0.2,12.9,0.2
			S-194.8,289.8-190.6,289.1z"/>
		<path fill="#FFFFFF" d="M-95,378.8c4.1-3.1,9.3-4.7,15.1-7.3c0.6,5.9,1.2,11,1.8,16.5c-6.7,0-12.3,0-19.5,0
			C-96.7,384.4-97,380.2-95,378.8z"/>
		<path fill="#FFFFFF" d="M-339.4,260.4c5.1,4.3,11,4.9,15.9,1.1c4.7-3.7,5.7-9.9,2.7-15.7c-0.8-1.6-0.7-3.7-1.3-6.9
			c6.8,4.8,9,11.1,7.3,17.6c-1.7,6.7-7.7,11.6-14.8,12.2c-6.7,0.6-12.5-2.9-15.1-10.4C-342.9,259-340.7,259.3-339.4,260.4z"/>
		<path fill="#FFFFFF" d="M-312.9,319.2c-4.1,3.1-9.3,4.7-15.1,7.4c-0.7-6-1.2-11.1-1.8-16.5c6.5,0,12.1,0,19.4,0
			C-311.3,313.7-311.1,317.8-312.9,319.2z"/>
		<path fill="#FFFFFF" d="M-83.6,363.2c-4.5,2.1-8.2,3.5-11.6,5.5c-4.3,2.6-7.3,2.3-9.2-3c3.2-4.6,6.4-9.4,10.2-15
			C-90.5,355-87.3,358.9-83.6,363.2z"/>
		<path fill="#FFFFFF" d="M-313.9,347.5c-3.7-4.6-6.9-8.5-10.4-12.7c4.6-2.1,8.3-3.5,11.7-5.6c4.3-2.6,7-1.7,9.1,3
			C-306.7,336.9-310,341.8-313.9,347.5z"/>
		<path fill="#FFFFFF" d="M-111.4,359.7c-0.5,0.8-2.2,1.2-3.2,0.9c-1-0.3-2.5-1.5-2.5-2.4c-0.2-5.3-0.1-10.7-0.1-17
			c5.4,1.6,9.9,2.9,15.4,4.5C-105.3,351-108.2,355.5-111.4,359.7z"/>
		<path fill="#FFFFFF" d="M-311.5,290.7c0,3.4,0,6.5,0,9.8c-6.1,0-11.9,0-17.9,0c0-3.4,0-6.4,0-9.8
			C-323.1,290.7-317.4,290.7-311.5,290.7z"/>
		<path fill="#FFFFFF" d="M-306.2,352.1c3.5-5.1,6.2-9.5,9.3-13.5c0.7-0.9,2.9-1.3,4.1-1c1,0.2,2,2,2.1,3.2c0.2,5,0.1,9.9,0.1,16.3
			C-296.5,355.2-301.1,353.8-306.2,352.1z"/>
		<path fill="#FFFFFF" d="M-78.8,397.6c0,3.5,0,6.5,0,9.7c-6,0-11.7,0-17.7,0c0-3.4,0-6.4,0-9.7C-90.4,397.6-84.6,397.6-78.8,397.6z
			"/>
		<path fill="#FFFFFF" d="M-218.2,208.1c7.4-8,19.7-8.2,29,0C-199.4,208.1-208.6,208.1-218.2,208.1z"/>
		<path fill="#FFFFFF" d="M-202.7,149.3c1.5,2.1,3.8,4.2,4.2,6.5c0.5,3.4-2,5.5-5.5,5.5s-6-2.2-5.4-5.6c0.4-2.4,2.8-4.4,4.3-6.5
			C-204.3,149.2-203.5,149.2-202.7,149.3z"/>
		<path fill="#FFFFFF" d="M-149,276.3c0,4.7-0.2,9.5,0,14.2c0.2,4.5-1.7,5.1-6.1,3.4c1.4-6,2.8-11.8,4.2-17.7
			C-150.2,276.3-149.6,276.3-149,276.3z"/>
		<path fill="#FFFFFF" d="M-212.8,304.6c6.3,0,12.3,0,18.3,0C-198.3,308.1-210.4,307.7-212.8,304.6z"/>
		<path fill="#FFFFFF" d="M-257.9,279.4c1.1,5.9,1.9,10.3,2.9,15.5C-259.4,293.7-260.2,288.4-257.9,279.4z"/>
		<path fill="#FFFFFF" d="M-326.3,279.7c2-1.1,3.9-3,6-3.3c2.9-0.4,4.9,1.3,5.2,4.8c-3.6,0-7,0-10.4,0
			C-325.8,280.7-326,280.2-326.3,279.7z"/>
		<path fill="#FFFFFF" d="M-194.5,318.6c-6,0.1-12.1,0.9-18-0.6c0-0.4,0-0.9,0-1.4c6,0,12,0,18,0
			C-194.5,317.3-194.5,317.9-194.5,318.6z"/>
		<path fill="#FFFFFF" d="M-126.3,396.6c0,2.9,0.1,5.8-0.1,8.7c0,0.7-1.2,1.4-1.8,2.1c-0.4-0.7-1.2-1.5-1.1-2.2c0.5-3,1.2-6,1.9-8.9
			C-127,396.4-126.7,396.4-126.3,396.6z"/>
		<path fill="#FFFFFF" d="M-280.6,396.4c0.7,2.9,1.5,5.7,1.9,8.5c0.1,0.8-0.9,1.7-1.4,2.5c-0.5-0.7-1.5-1.3-1.5-2
			c-0.2-2.9-0.1-5.9-0.1-8.8C-281.3,396.6-280.9,396.5-280.6,396.4z"/>
		<path d="M-146.1,369.9c0.1,12.4-9.7,22.3-22,22.4c-12.4,0.1-22.3-9.7-22.4-22c-0.1-12.4,9.6-22.3,22-22.4
			C-156.1,347.8-146.2,357.5-146.1,369.9z M-181.5,370.3c0.1,7.4,6.2,13.2,13.6,13c7.2-0.1,12.9-6,12.9-13.2c0-7.4-6-13.4-13.4-13.3
			C-175.8,356.9-181.7,362.9-181.5,370.3z"/>
		<path d="M-255.2,359.2c-3.1,0-6-0.6-6.1-4.3c-0.2-4.1,2.8-4.7,6.1-4.7c16.6,0,33.2,0,49.8,0c3,0,5.9,0.5,6,4.3
			c0.1,4.1-2.8,4.7-6.1,4.7c-8.1,0-16.3,0-24.4,0C-238.4,359.2-246.9,359.2-255.2,359.2z"/>
		<path d="M-255.6,374.5c-3.2,0-5.8-0.7-5.8-4.5c0-3.4,2.5-4.4,5.5-4.4c17,0,34,0,51,0c3,0,5.5,0.8,5.6,4.3c0,3.8-2.6,4.5-5.8,4.5
			c-8.5,0-17,0-25.5,0C-239,374.4-247.3,374.4-255.6,374.5z"/>
		<path d="M-205.6,381c3.2,0,6.4,0.3,6.3,4.5c-0.1,3.8-3,4.4-6,4.4c-16.7,0-33.3,0-50,0c-3.1,0-6-0.5-6.1-4.3
			c-0.1-4.2,3-4.6,6.2-4.6c8.2,0,16.3,0,24.5,0C-222.4,381-214,381-205.6,381z"/>
		<path d="M-242.4,275.4c0-4.8-0.4-9.3,0.2-13.7c0.3-1.7,2.8-3,4.3-4.5c1.5,1.5,3.3,2.8,4.3,4.5c0.8,1.2,0.4,3.1,0.5,4.8
			c19.8,0,39.2,0,58.8,0c0.1-1.7,0.2-3,0.3-4.3c0.2-2.8,1.2-5,4.4-5s4.4,2,4.4,4.9c0,4.3,0,8.6,0,13.3
			C-191.3,275.4-216.5,275.4-242.4,275.4z"/>
		<path d="M-235.3,240c-0.1-8,6.5-14.6,14.5-14.7c8.3-0.1,14.9,6.5,14.8,14.8c-0.1,8.2-6.5,14.4-14.7,14.4
			C-228.8,254.4-235.3,248-235.3,240z M-215.2,239.6c0.4-3.3-2.2-5.5-5.7-5.3c-3.5,0.2-5.9,2.5-5.3,5.8c0.5,2.3,3,4.2,4.6,6.3
			c0.8,0,1.6-0.1,2.4-0.1C-217.8,244.1-215.5,242-215.2,239.6z"/>
		<path d="M-200.8,240c-0.1-8.2,6.3-14.6,14.4-14.7c8.3-0.1,15,6.6,14.9,14.8c-0.1,8.1-6.5,14.4-14.7,14.4
			C-194.4,254.4-200.8,248.1-200.8,240z M-180.7,240.1c0.6-3.3-1.8-5.6-5.3-5.7c-3.5-0.2-6,2-5.6,5.3c0.3,2.3,2.6,4.4,4,6.6
			c0.8,0.1,1.6,0.1,2.4,0.1C-183.7,244.3-181.2,242.4-180.7,240.1z"/>
		<path d="M-216.4,289.1c-1.8-0.3-3.4-2.6-5.1-4c1.6-1.6,3.1-4.4,4.7-4.5c8.7-0.4,17.5-0.4,26.3,0c1.8,0.1,3.3,2.8,5,4.3
			c-1.7,1.5-3.2,3.9-5.1,4.2c-4.2,0.6-8.6,0.2-12.9,0.2S-212.2,289.8-216.4,289.1z"/>
		<path fill="#FFFFFF" d="M-155.1,370.1c0,7.2-5.7,13-12.9,13.2c-7.4,0.2-13.5-5.6-13.6-13c-0.1-7.4,5.8-13.5,13.2-13.5
			C-161,356.8-155,362.7-155.1,370.1z"/>
		<path fill="#FFFFFF" d="M-221.6,246.4c-1.6-2.1-4.1-4-4.6-6.3c-0.6-3.3,1.8-5.6,5.3-5.8s6.1,2,5.7,5.3c-0.3,2.4-2.6,4.5-4,6.7
			C-220,246.3-220.8,246.4-221.6,246.4z"/>
		<path fill="#FFFFFF" d="M-187.6,246.3c-1.4-2.2-3.7-4.3-4-6.6c-0.4-3.3,2.1-5.4,5.6-5.3c3.5,0.1,5.9,2.4,5.3,5.7
			c-0.4,2.3-2.9,4.2-4.5,6.3C-186,246.4-186.8,246.3-187.6,246.3z"/>
	</g>
</g>
<g>
	<defs>
		<rect id="SVGID_3_" x="-374" y="124.9" width="255.3" height="378"/>
	</defs>
	<clipPath id="SVGID_4_">
		<use xlink:href="#SVGID_3_"  overflow="visible"/>
	</clipPath>
	<g clip-path="url(#SVGID_4_)">
		<path d="M-264.6,306.5c-0.4-1.1-0.6-1.6-0.6-2c0-22.8-0.3-45.7,0.2-68.5c0.2-11.4,9.2-21.2,20.3-23.8c2.1-0.5,4.3-1,6.4-0.8
			c6.6,0.7,11.2-1.2,15.8-6.5c3.9-4.5,10.4-6.7,16.6-10.6c0-5.5,0.1-12.5-0.1-19.5c0-1.2-1.4-2.8-2.6-3.6c-6.1-4.1-8.8-10.3-7-16.7
			c1.7-6.3,7.4-10.6,14-10.6c6.6,0,12.4,4.3,14.2,10.5c1.8,6.5-0.8,12.7-6.8,16.9c-1.4,1-2.7,3.2-2.8,4.9c-0.3,6.5-0.1,13-0.1,19.7
			c9,1.9,16.2,6.3,21.3,13.9c0.6,0.9,2.2,1.3,3.4,1.4c2.5,0.2,5,0,7.5,0.1c15.4,0.6,26.7,11.1,27.1,26.5c0.5,21.6,0.1,43.3,0.3,65
			c0,3.3-1.6,3.8-4.3,3.8c-12-0.1-24,0-36,0c-1.8,0-3.6,0-6.1,0c0,4.7-0.3,8.8,0.2,12.8c0.1,1,2.7,2.4,4.2,2.5
			c11.3,0.2,22.7,0.3,34,0.1c9.1-0.2,17,2.1,23.6,8.7c1.2,1.2,4,1.5,5.9,1.2c7.4-1.3,12.6-7.7,12.8-15.8c0.2-6.5-0.4-13,0.2-19.5
			c0.4-4.1-2.2-8.5,2-12.6c3-2.9,4.2-7.6,6.5-12.2c-5.8-7.7-8-17.1-3.5-27.2c3.4-7.6,9.5-12.1,18.1-14.5c2.7,6.8,5.3,13.5,7.6,19.3
			c-2,2.6-3.6,4.6-5.1,6.6c0.9,0.7,2.4,2,2.5,1.9c1.6-1.8,3.1-3.7,5.2-6.5c5.9,0.8,13.1,1.9,20.2,2.9c0.3,12.8-6,20.5-21.3,26.6
			c0.1,0.7,0,2.1,0.4,2.2c5,2.1,3.2,6.4,3.3,10c0.1,9.7,0.6,19.4-0.4,29c-2.4,23.2-19.2,40.9-42.1,45.5c-1.6,0.3-3.2,0.7-5.2,1.1
			c0,16.7,0,33.3,0,50.4c-57.8,0-115.2,0-173.2,0c0-15.4,0-30.8,0-46.3c-7.5,1.8-11.6,7.3-11.8,15.2c-0.2,8.5,0,17-0.1,25.5
			c0,1.8-0.1,3.6-0.2,5.6c-12,0-23.6,0-35.6,0c-0.1-1.4-0.3-2.9-0.3-4.3c0-8.7,0-17.3,0-26c0-28.3,19.3-49.8,47.4-53.4
			c2.3-0.3,4.8-1.8,6.4-3.5c5.6-6.1,12.2-9.7,20.6-9.8c12.2-0.1,24.3-0.2,36.5,0c4.2,0.1,5-1.5,4.8-5.2
			c-0.6-10.3-0.5-10.3-11.2-10.3C-242.4,306.5-253.4,306.5-264.6,306.5z M-137.2,410.1c2.4-7.4,3.2-15,6.9-20.5
			c6.4-9.4,7.1-19.3,6.4-29.8c-0.2-2.8,0-5.7,0-8.5c0-13.6-6.9-20.4-20.7-20.4c-23.6,0-47.3,0.1-70.9,0.1c-15.2,0-30.3-0.2-45.5-0.1
			c-10.7,0.1-18,7.8-18.1,18.5c-0.1,8.3-0.1,16.6-0.1,25c0,1.6-0.1,3.6,0.8,4.8c6.6,9.3,10.4,19.5,11.7,30.9
			C-223.1,410.1-179.9,410.1-137.2,410.1z M-159.2,297.4c0.8-12.4,4.4-23.3,11.4-33c0.8-1.1,1.3-2.8,1.3-4.2
			c0.1-7.5,0.3-15-0.1-22.5c-0.5-10-7.8-17.3-17.7-17.4c-24.8-0.2-49.6-0.2-74.4,0c-9,0.1-16.8,6.6-17.2,15.1
			c-0.7,11.6-2.5,23.1,5.5,34.3c5.5,7.5,6.9,17.9,10.4,27.8C-214.2,297.4-187,297.4-159.2,297.4z M-307.9,390.8
			c-0.9-3.6-0.6-7.8-2.5-9.2c-4.2-3-9.4-4.6-15.1-7.3c-0.7,5.9-1.2,11-1.8,16.5C-320.8,390.8-315.2,390.8-307.9,390.8z M-60.8,261.1
			c-1.8,0.7-3.9,1-5.3,2.2c-5.1,4.3-11,4.9-15.9,1.1c-4.8-3.7-5.7-9.9-2.7-15.7c0.8-1.6,0.8-3.8,1.3-6.9c-6.8,4.8-9,11.1-7.3,17.6
			c1.8,6.7,7.8,11.6,14.8,12.2C-69.2,272.1-63.4,268.6-60.8,261.1z M-95.1,312.9c0.9,3.6,0.7,7.8,2.5,9.2c4.1,3,9.3,4.7,15.1,7.4
			c0.6-6,1.2-11.1,1.8-16.5C-82.2,312.9-87.8,312.9-95.1,312.9z M-311.3,353.5c-3.7,4.4-6.9,8.2-10.6,12.6c4.5,2.1,8.2,3.4,11.6,5.5
			c4.3,2.6,7.3,2.3,9.2-3C-304.2,363.9-307.5,359.1-311.3,353.5z M-102,335c3.2,4.7,6.5,9.6,10.3,15.3c3.8-4.6,6.9-8.4,10.4-12.7
			c-4.5-2.1-8.3-3.5-11.7-5.6C-97.2,329.3-100,330.2-102,335z M-303.7,348.5c3.6,5.4,6.4,9.8,9.6,14c0.5,0.7,2.3,1.1,3.2,0.9
			c1-0.3,2.4-1.5,2.5-2.4c0.2-5.4,0.1-10.8,0.1-17C-293.7,345.6-298.2,346.9-303.7,348.5z M-76.1,293.5c-6.2,0-12,0-17.9,0
			c0,3.4,0,6.5,0,9.8c6.1,0,11.9,0,17.9,0C-76.1,299.9-76.1,296.9-76.1,293.5z M-114.9,359.9c5.9-1.8,10.4-3.3,15.5-4.9
			c-3.5-5.2-6.2-9.5-9.3-13.5c-0.7-0.9-2.9-1.4-4.1-1c-0.9,0.3-2,2.1-2.1,3.2C-115,348.5-114.9,353.5-114.9,359.9z M-309,400.4
			c-6.1,0-11.9,0-17.7,0c0,3.4,0,6.5,0,9.7c6,0,11.7,0,17.7,0C-309,406.7-309,403.6-309,400.4z M-216.3,210.9c10.2,0,19.4,0,29,0
			C-194.7,202.9-206.9,202.8-216.3,210.9z M-200.4,152c-0.8,0-1.6,0-2.4,0c-1.5,2.2-3.8,4.2-4.2,6.5c-0.5,3.4,2,5.5,5.5,5.5
			s6-2.2,5.4-5.6C-196.5,156.1-198.9,154.1-200.4,152z M-254.6,279c-0.6,0.1-1.3,0.1-1.9,0.2c0,4.7,0.2,9.5,0,14.2
			c-0.2,4.5,1.7,5.1,6.1,3.4C-251.9,290.7-253.2,284.9-254.6,279z M-211,307.4c3.8,3.5,15.9,3.1,18.3,0
			C-199.1,307.4-205.1,307.4-211,307.4z M-150.5,297.7c4.4-1.2,5.2-6.5,2.9-15.5C-148.7,288-149.6,292.4-150.5,297.7z M-80,284
			c0.3-0.5,0.5-1,0.8-1.5c-2-1.2-3.9-3-6-3.3c-2.9-0.4-4.9,1.3-5.2,4.8C-86.8,284-83.4,284-80,284z M-211,319.4c0,0.7,0,1.3,0,2
			c6,0.1,12,0.9,18-0.6c0-0.5,0-1,0-1.4C-199.1,319.4-205,319.4-211,319.4z M-278.1,399.1c-0.4,0.1-0.8,0.1-1.1,0.2
			c0,2.9-0.1,5.8,0.1,8.7c0.1,0.8,1.2,1.4,1.8,2.1c0.4-0.7,1.2-1.6,1.1-2.2C-276.7,405-277.4,402.1-278.1,399.1z M-123.8,399.4
			c-0.4,0-0.8-0.1-1.1-0.1c-0.7,2.8-1.4,5.6-1.9,8.5c-0.1,0.7,0.9,1.6,1.4,2.5c0.5-0.7,1.5-1.3,1.5-2
			C-123.7,405.3-123.8,402.4-123.8,399.4z"/>
		<path d="M-125.9,261.2c0,5.2,0,10.3,0,15.5c0,3-0.8,5.4-4.3,5.5c-3.5,0.1-4.6-2.3-4.6-5.3c-0.1-10.3-0.1-20.6,0-30.9
			c0-3,1.3-5.4,4.7-5.3c3.4,0.1,4.3,2.5,4.3,5.6C-125.9,251.2-125.9,256.2-125.9,261.2z"/>
		<path d="M-269.9,261.6c0,5.2,0.4,10.3-0.2,15.4c-0.2,1.8-2.3,4.5-4,4.9c-3.3,0.8-4.6-2-4.6-5c-0.1-10.3,0-20.6,0-30.9
			c0-3,1.2-5.4,4.5-5.4c3.4,0,4.4,2.4,4.4,5.4C-269.9,251.3-269.9,256.4-269.9,261.6z"/>
		<path fill="#FFFFFF" d="M-137.2,410.1c-42.6,0-85.8,0-129.5,0c-1.2-11.4-5.1-21.7-11.7-30.9c-0.8-1.2-0.8-3.2-0.8-4.8
			c0-8.3,0-16.6,0.1-25c0.1-10.7,7.4-18.4,18.1-18.5c15.1-0.2,30.3,0.1,45.5,0.1c23.6,0,47.3-0.1,70.9-0.1
			c13.8,0,20.6,6.8,20.7,20.4c0,2.8-0.2,5.7,0,8.5c0.7,10.5,0,20.4-6.4,29.8C-134.1,395.1-134.9,402.7-137.2,410.1z M-237,350.7
			c-12.4-0.1-22.3,9.6-22.4,22c-0.1,12.4,9.7,22.3,22,22.4c12.3,0.1,22.3-9.7,22.4-22C-214.9,360.7-224.6,350.8-237,350.7z
			 M-175.6,362c8.5,0,16.9,0,25.4,0c3.1,0,5.9-0.6,6.1-4.3c0.1-4.1-2.8-4.7-6.1-4.7c-16.6,0-33.2,0-49.8,0c-3.1,0-5.9,0.5-6,4.3
			c-0.1,4.1,2.8,4.7,6.1,4.7C-191.8,362-183.7,362-175.6,362z M-174.9,377.2c8.3,0,16.7,0,25,0c3.2,0,5.9-0.7,5.8-4.5
			c0-3.4-2.6-4.4-5.5-4.4c-17,0-34,0-51,0c-2.9,0-5.5,0.9-5.6,4.3c-0.1,3.8,2.6,4.5,5.8,4.5C-191.9,377.2-183.4,377.2-174.9,377.2z
			 M-174.8,383.8c-8.3,0-16.7,0-25,0c-3.2,0-6.4,0.3-6.3,4.5c0,3.8,3,4.4,6,4.4c16.7,0,33.3,0,50,0c3,0,6-0.5,6.1-4.3
			c0.1-4.2-3-4.6-6.2-4.6C-158.5,383.8-166.6,383.8-174.8,383.8z"/>
		<path fill="#FFFFFF" d="M-159.2,297.4c-27.8,0-55,0-80.8,0c-3.5-9.8-5-20.2-10.4-27.8c-8-11.1-6.2-22.6-5.5-34.3
			c0.5-8.5,8.3-15,17.2-15.1c24.8-0.2,49.6-0.2,74.4,0c9.9,0.1,17.3,7.5,17.7,17.4c0.4,7.5,0.2,15,0.1,22.5c0,1.4-0.5,3-1.3,4.2
			C-154.8,274.2-158.4,285.1-159.2,297.4z M-240.3,278.2c26.1,0,51.3,0,77.1,0c0-4.8,0.4-9.3-0.2-13.7c-0.2-1.7-2.8-3-4.3-4.5
			c-1.5,1.5-3.3,2.7-4.3,4.5c-0.7,1.3-0.3,3.1-0.5,4.8c-19.8,0-39.2,0-58.8,0c-0.1-1.7-0.2-3-0.3-4.3c-0.2-2.8-1.2-4.9-4.4-5
			c-3.2,0-4.4,2-4.4,4.9C-240.4,269.2-240.3,273.5-240.3,278.2z M-184.8,257.3c8.1,0,14.6-6.5,14.6-14.5s-6.5-14.6-14.5-14.7
			c-8.4-0.1-14.9,6.4-14.8,14.8C-199.4,251-193,257.3-184.8,257.3z M-219.3,257.3c8.2,0,14.5-6.3,14.6-14.5
			c0-8.1-6.3-14.6-14.4-14.7c-8.3-0.1-15,6.6-14.9,14.8C-233.9,250.9-227.4,257.3-219.3,257.3z M-202,292.1c4.3,0,8.7,0.4,12.9-0.2
			c1.9-0.3,3.4-2.6,5.1-4c-1.6-1.6-3.1-4.4-4.7-4.5c-8.8-0.5-17.6-0.5-26.3,0c-1.7,0.1-3.3,2.8-5,4.3c1.7,1.5,3.2,3.9,5.1,4.2
			C-210.7,292.6-206.3,292.1-202,292.1z"/>
		<path fill="#FFFFFF" d="M-307.9,390.8c-7.2,0-12.8,0-19.5,0c0.6-5.5,1.2-10.6,1.8-16.5c5.8,2.6,11,4.2,15.1,7.3
			C-308.5,383-308.8,387.2-307.9,390.8z"/>
		<path fill="#FFFFFF" d="M-60.8,261.1c-2.6,7.5-8.4,11-15.1,10.4c-7.1-0.6-13.1-5.5-14.8-12.2c-1.7-6.5,0.5-12.8,7.3-17.6
			c-0.6,3.2-0.5,5.3-1.3,6.9c-3,5.8-2,12,2.7,15.7c4.9,3.8,10.8,3.2,15.9-1.1C-64.8,262.1-62.6,261.8-60.8,261.1z"/>
		<path fill="#FFFFFF" d="M-95.1,312.9c7.3,0,12.9,0,19.4,0c-0.6,5.4-1.1,10.5-1.8,16.5c-5.8-2.7-11-4.3-15.1-7.4
			C-94.4,320.6-94.2,316.5-95.1,312.9z"/>
		<path fill="#FFFFFF" d="M-311.3,353.5c3.8,5.6,7,10.4,10.2,15c-1.9,5.3-4.9,5.6-9.2,3c-3.4-2-7.1-3.4-11.6-5.5
			C-318.2,361.7-315,357.8-311.3,353.5z"/>
		<path fill="#FFFFFF" d="M-102,335c2.1-4.7,4.8-5.6,9.1-3c3.4,2.1,7.1,3.5,11.7,5.6c-3.5,4.2-6.7,8.1-10.4,12.7
			C-95.5,344.6-98.8,339.7-102,335z"/>
		<path fill="#FFFFFF" d="M-303.7,348.5c5.5-1.6,10-2.9,15.4-4.5c0,6.3,0.1,11.7-0.1,17c0,0.9-1.5,2.1-2.5,2.4
			c-1,0.3-2.7-0.1-3.2-0.9C-297.3,358.3-300.2,353.8-303.7,348.5z"/>
		<path fill="#FFFFFF" d="M-76.1,293.5c0,3.4,0,6.4,0,9.8c-6,0-11.8,0-17.9,0c0-3.3,0-6.4,0-9.8C-88.1,293.5-82.4,293.5-76.1,293.5z
			"/>
		<path fill="#FFFFFF" d="M-114.9,359.9c0-6.4-0.1-11.3,0.1-16.3c0.1-1.2,1.1-3,2.1-3.2c1.2-0.3,3.4,0.1,4.1,1
			c3.1,4,5.8,8.4,9.3,13.5C-104.4,356.6-109,358-114.9,359.9z"/>
		<path fill="#FFFFFF" d="M-309,400.4c0,3.3,0,6.3,0,9.7c-6,0-11.7,0-17.7,0c0-3.2,0-6.2,0-9.7C-320.9,400.4-315.1,400.4-309,400.4z
			"/>
		<path fill="#FFFFFF" d="M-216.3,210.9c9.3-8.2,21.6-8,29,0C-196.9,210.9-206.1,210.9-216.3,210.9z"/>
		<path fill="#FFFFFF" d="M-200.4,152c1.5,2.1,3.9,4.1,4.3,6.5c0.6,3.4-1.9,5.6-5.4,5.6s-6-2.1-5.5-5.5c0.4-2.3,2.7-4.4,4.2-6.5
			C-202,152-201.2,152-200.4,152z"/>
		<path fill="#FFFFFF" d="M-254.6,279c1.4,5.9,2.8,11.7,4.2,17.7c-4.4,1.7-6.3,1.1-6.1-3.4c0.2-4.7,0-9.5,0-14.2
			C-255.9,279.1-255.3,279.1-254.6,279z"/>
		<path fill="#FFFFFF" d="M-211,307.4c6,0,12,0,18.3,0C-195.1,310.5-207.2,310.9-211,307.4z"/>
		<path fill="#FFFFFF" d="M-150.5,297.7c1-5.2,1.8-9.6,2.9-15.5C-145.3,291.2-146.1,296.5-150.5,297.7z"/>
		<path fill="#FFFFFF" d="M-80,284c-3.4,0-6.8,0-10.4,0c0.3-3.5,2.3-5.2,5.2-4.8c2.1,0.3,4,2.2,6,3.3C-79.5,283-79.7,283.5-80,284z"
			/>
		<path fill="#FFFFFF" d="M-211,319.4c6,0,12,0,18,0c0,0.5,0,1,0,1.4c-5.9,1.5-12,0.7-18,0.6C-211,320.7-211,320.1-211,319.4z"/>
		<path fill="#FFFFFF" d="M-278.1,399.1c0.7,2.9,1.4,5.9,1.9,8.9c0.1,0.7-0.7,1.5-1.1,2.2c-0.6-0.7-1.8-1.4-1.8-2.1
			c-0.2-2.9-0.1-5.8-0.1-8.7C-278.8,399.2-278.5,399.2-278.1,399.1z"/>
		<path fill="#FFFFFF" d="M-123.8,399.4c0,2.9,0.1,5.9-0.1,8.8c0,0.7-1,1.3-1.5,2c-0.5-0.8-1.5-1.7-1.4-2.5c0.4-2.8,1.2-5.6,1.9-8.5
			C-124.6,399.3-124.2,399.4-123.8,399.4z"/>
		<path d="M-237,350.7c12.4,0.1,22.1,10,22,22.4c-0.1,12.3-10,22.1-22.4,22c-12.3-0.1-22.1-10-22-22.4
			C-259.3,360.3-249.4,350.6-237,350.7z M-237.1,359.6c-7.4-0.1-13.4,5.9-13.4,13.3c0,7.2,5.7,13.1,12.9,13.2
			c7.4,0.2,13.5-5.6,13.6-13C-223.8,365.7-229.7,359.7-237.1,359.6z"/>
		<path d="M-175.6,362c-8.1,0-16.3,0-24.4,0c-3.3,0-6.2-0.6-6.1-4.7c0.1-3.8,3-4.3,6-4.3c16.6,0,33.2,0,49.8,0
			c3.3,0,6.3,0.6,6.1,4.7c-0.1,3.7-3,4.3-6.1,4.3C-158.6,362-167.1,362-175.6,362z"/>
		<path d="M-174.9,377.2c-8.5,0-17,0-25.5,0c-3.2,0-5.8-0.7-5.8-4.5c0.1-3.5,2.6-4.3,5.6-4.3c17,0,34,0,51,0c3,0,5.5,1,5.5,4.4
			c0,3.8-2.6,4.5-5.8,4.5C-158.2,377.2-166.5,377.2-174.9,377.2z"/>
		<path d="M-174.8,383.8c8.2,0,16.3,0,24.5,0c3.2,0,6.3,0.4,6.2,4.6c-0.1,3.8-3,4.3-6.1,4.3c-16.7,0-33.3,0-50,0c-3,0-5.9-0.6-6-4.4
			c-0.1-4.2,3.1-4.5,6.3-4.5C-191.5,383.8-183.1,383.8-174.8,383.8z"/>
		<path d="M-240.3,278.2c0-4.7,0-9,0-13.3c0-2.9,1.2-4.9,4.4-4.9c3.2,0,4.2,2.2,4.4,5c0.1,1.3,0.2,2.6,0.3,4.3c19.6,0,39,0,58.8,0
			c0.1-1.7-0.3-3.6,0.5-4.8c1-1.7,2.8-3,4.3-4.5c1.5,1.5,4,2.8,4.3,4.5c0.6,4.4,0.2,8.9,0.2,13.7
			C-189,278.2-214.2,278.2-240.3,278.2z"/>
		<path d="M-184.8,257.3c-8.2,0-14.6-6.2-14.7-14.4c-0.1-8.3,6.5-14.9,14.8-14.8c8,0.1,14.6,6.7,14.5,14.7
			C-170.2,250.8-176.7,257.2-184.8,257.3z M-186.3,249.1c0.8,0,1.6,0.1,2.4,0.1c1.6-2.1,4.1-4,4.6-6.3c0.6-3.3-1.8-5.6-5.3-5.8
			c-3.5-0.2-6.1,2-5.7,5.3C-190,244.8-187.7,246.9-186.3,249.1z"/>
		<path d="M-219.3,257.3c-8.2,0-14.6-6.3-14.7-14.4c-0.1-8.2,6.6-14.9,14.9-14.8c8.1,0.1,14.5,6.5,14.4,14.7
			C-204.7,250.9-211.1,257.2-219.3,257.3z M-220.3,249.2c0.8,0,1.6,0,2.4-0.1c1.4-2.2,3.7-4.3,4-6.6c0.4-3.3-2.1-5.5-5.6-5.3
			c-3.5,0.1-5.9,2.4-5.3,5.7C-224.3,245.2-221.8,247.1-220.3,249.2z"/>
		<path d="M-202,292.1c-4.3,0-8.7,0.4-12.9-0.2c-1.9-0.3-3.4-2.7-5.1-4.2c1.7-1.5,3.2-4.2,5-4.3c8.8-0.4,17.6-0.4,26.3,0
			c1.6,0.1,3.1,2.9,4.7,4.5c-1.7,1.4-3.3,3.7-5.1,4C-193.3,292.6-197.7,292.1-202,292.1z"/>
		<path fill="#FFFFFF" d="M-237.1,359.6c7.4,0,13.3,6.1,13.2,13.5c-0.1,7.4-6.2,13.2-13.6,13c-7.2-0.2-12.9-6-12.9-13.2
			C-250.5,365.5-244.5,359.6-237.1,359.6z"/>
		<path fill="#FFFFFF" d="M-186.3,249.1c-1.4-2.2-3.7-4.3-4-6.7c-0.4-3.3,2.2-5.5,5.7-5.3s5.9,2.5,5.3,5.8c-0.5,2.3-3,4.2-4.6,6.3
			C-184.7,249.2-185.5,249.1-186.3,249.1z"/>
		<path fill="#FFFFFF" d="M-220.3,249.2c-1.6-2.1-4.1-4-4.5-6.3c-0.6-3.3,1.8-5.6,5.3-5.7s6,2,5.6,5.3c-0.3,2.3-2.6,4.4-4,6.6
			C-218.7,249.1-219.5,249.2-220.3,249.2z"/>
	</g>
</g>
</svg>
