<?xml version="1.0" encoding="utf-8"?>
<!-- Generator: Adobe Illustrator 19.1.0, SVG Export Plug-In . SVG Version: 6.00 Build 0)  -->
<svg version="1.1" id="Layer_1" xmlns="http://www.w3.org/2000/svg" xmlns:xlink="http://www.w3.org/1999/xlink" x="0px" y="0px"
	 viewBox="0 0 194.7 279.2" enable-background="new 0 0 194.7 279.2" xml:space="preserve">
<g>
	<path d="M123.8,236.5c0,1.9,0,3.2,0,4.6c0.8,0.2,1.4,0.4,2,0.4c7.5,0,15,0.1,22.5,0c3.2,0,6,0.7,6.1,4.3c0.1,3.9-2.9,4.7-6.3,4.6
		c-8-0.1-15.9,0-24.6,0c0,6.5,0,12.6,0,18.7c0,1.7,0,3.3,0,5c-0.2,3-1.6,5.7-4.8,5c-1.7-0.4-3.8-3.2-3.9-5.1
		c-0.5-6.3-0.2-12.7-0.2-19c0-1.3-0.1-2.6-0.3-4.6c-7.3,0-14.4-0.1-21.5,0c-3.3,0-6.5-0.4-6.6-4.3c-0.1-4.3,3.2-4.7,6.7-4.7
		c7,0.1,14,0,20.9,0c1.5-3.7,0.6-5.1-3.2-5.1c-9.8,0.1-19.7,0-29.5,0.1c-3.3,0-6.4-0.5-6.3-4.5c0.1-4,3.2-4.4,6.5-4.4
		c10.8,0,21.6,0,33,0c0.1-2,0.2-3.7,0.3-6.1c-2-0.1-3.8-0.4-5.5-0.4c-10.8,0-21.7,0-32.5,0c-1.3,0-3,0.5-3.9-0.2
		c-1.8-1.2-3.2-3.1-4.8-4.7c1.6-1.4,3.1-3.7,4.9-3.9c5.3-0.5,10.6-0.2,16-0.2c7.3,0,14.7-0.1,22,0c3.4,0,4.5-1.3,3.2-5.1
		c-9.5,0-19.1,0-28.8,0c-1.8,0-3.9,0.5-5.4-0.2c-1.9-0.9-3.3-2.9-5-4.4c1.7-1.4,3.4-4,5.1-4.1c9.3-0.4,18.7-0.2,28-0.2
		c2,0,3.9,0,6.3,0c0-2.5,0-4.6,0-7.4c-1.9,0-3.9,0-5.8,0c-15.7-0.1-31.3-0.2-47-0.4c-2.3,0-4.7,0.1-7-0.3c-3.9-0.8-7.5-1-11.5,0.6
		c-5.6,2.3-12.3-0.5-15.8-5.5c-3.6-5.1-3.2-12,0.2-17.4c1.5-2.3,2.6-5.3,2.6-8c0.2-17.3,0.1-34.7,0.1-52c0-1.3-0.1-2.7,0.1-4
		c0.4-2.8,1.2-5.4,4.7-5.4c3.5,0,4.6,2.6,4.6,5.4c0.2,6.8,0.1,13.7,0.1,20.5c0,12.3,0,24.6,0,37.3c10.3,2.1,15.2,8.5,14.1,19.6
		c20.3,0,40.2,0,60.5,0c0-4.4,0-9.2,0-14.6c-7.5,0-14.9,0-22.3,0c-6.7,0-7.3-0.6-7.4-7.5c0-6.6,0-13.2,0-20.3c-8.1,0-15.5,0-23.2,0
		c-0.2-1.7-0.4-3-0.4-4.3c0-13.8-0.1-27.7,0-41.5C61,76.2,72.5,64.7,89.3,64.6c18.6-0.1,37.3,0,56.2,0c0.7-3.7,1-6-3.6-7.6
		c-20.1-6.9-22.4-31.1-9.3-45.3c-2.2-1.6-5.1-2.8-6.6-5c-1.1-1.5-0.2-4.3-0.3-6.6c2.1,0.1,4.7-0.4,6.2,0.5c2.1,1.4,3.5,3.9,5,5.7
		c11-6,17.4-6,23.2-0.5c5.5,5.3,6.1,11.7,1.3,22c2.7,0,5.1,0,7.4,0c2.5,0,4.9,0,7.3,0c1.9,13.6-5,25-17.7,29.3
		c-2.6,0.9-4.5,2-3.5,4.7c0.5,1.4,2.3,3,3.8,3.4c11.7,3.2,20.3,12.4,20.7,24.1c0.5,16.1,0.1,32.3,0.1,48.9c-7.6,0-15,0-23.5,0
		c0,4.7,0,8.9,0,13.2c0,2.5,0,5,0,7.5c-0.1,6.8-0.8,7.5-7.4,7.6c-8.1,0-16.3,0-24.8,0c0,5.1,0,9.8,0,15.1c1.8,0.1,3.5,0.2,5.3,0.2
		c12,0,24-0.1,36,0c18.4,0.2,29.4,11.3,29.4,29.8c0,19.2,0,38.3,0,57.5c0,1.6,0,3.3,0,5.3c-3,0-5.6,0-8.9,0c0-1.7,0-3.5,0-5.2
		c0-19.3,0-38.7,0-58c0-12.8-7.3-20.3-20-20.4c-13.8-0.1-27.6,0-41.8,0c0,2.5,0,4.6,0,7.4c5.8,0,11.5,0,17.3,0c6.2,0,12.3,0,18.5,0
		c3.1,0,5.9,0.5,6,4.3c0,3.8-2.8,4.5-5.9,4.5c-10.8,0-21.7,0.1-32.5,0c-3.5,0-4.5,1.3-3.1,5.1c4.7,0,9.7,0,14.7,0c9.3,0,18.7,0,28,0
		c2.9,0,5.6,0.8,5.7,4.2c0.2,3.7-2.5,4.7-5.7,4.7c-14.2,0-28.3,0-42.9,0c0,2.1,0,4,0,6.5c8.3,0,16.6,0,24.8,0c3.3,0,6.7,0,10,0
		c3.3,0,6.9,0.1,6.8,4.5c0,4.5-3.6,4.5-6.9,4.5C147.4,236.5,135.9,236.5,123.8,236.5z M109.5,157.2c4.2,1.3,5.4-0.2,5.1-3.7
		c-0.2-2-0.5-4.2,0.2-5.9c0.6-1.6,2.4-3.8,3.7-3.7c1.7,0.1,4,1.7,4.6,3.3c0.9,2,0.3,4.6,0.4,6.9c0.1,1.1,0.2,2.2,0.3,3.4
		c1.7,0,3.1,0,4.9,0c0-3.1-0.5-6,0.2-8.6c0.5-2,2.4-4.6,4.1-5c3.2-0.7,4.6,1.8,4.6,5c0,2.9,0,5.8,0,8.7c3.6,0,6.3,0,9.6,0
		c0-7.1,0.3-13.9-0.1-20.7c-0.4-5.7,1.2-10,5.7-13.5c2.7-2.1,4.8-6.7,9.1-3.5c4.4,3.4,0.3,6.3-1.8,9.6c3.7,0,6.9,0,10.6,0
		c0-12.5,0.1-24.7,0-37c-0.1-11.1-7.8-18.8-19-18.8c-20.8-0.1-41.6-0.1-62.4,0c-2.9,0-5.9,0.9-8.7,1.8c-0.8,0.3-1.1,2-1.2,2.1
		c3.7,0.7,7.6,0.3,9,2.1c2.7,3.3-1,5.3-3.2,7.6c-1.2,1.2-2.2,3.3-2.3,5c-0.3,3.3-0.7,6.4-4.7,6.2c-4-0.1-4.3-3.3-4.5-6.5
		c-0.1-2.3-0.7-4.6-1.1-6.9c-0.7,0.1-1.3,0.2-2,0.2c0,14.7,0,29.3,0,44c3,0,6.2,0,10,0c-1.6-1.8-3.1-2.9-3.6-4.4
		c-0.5-1.5-0.5-3.9,0.4-5c0.9-1.1,3.3-1.6,4.8-1.2c4.6,1.2,11.1,10.9,11.2,15.7c0,7.6,0,15.2,0,23.1c2.5,0,4.5,0,6.7,0
		c0.1-1.7,0.1-3.2,0.3-4.6c0.4-3.6-1.6-9.3,4.6-9.1c6.1,0.2,3.9,5.8,4.3,9.4C109.4,154.4,109.5,155.7,109.5,157.2z M166.5,37
		c-5.2,0-10.3,0.3-15.4-0.1c-1.8-0.1-4.4-1.6-5.1-3.1c-0.6-1.4,0.5-4.1,1.7-5.6c2-2.6,5.2-4.5,6.7-7.3c1.1-2.1,1.2-5.9-0.1-7.6
		c-1.3-1.6-5.8-2.9-7.2-1.9c-7,5.1-14,10.4-14,20.5c0,8.7,6.3,16.4,14.7,17.6C156.5,50.7,164.4,45.6,166.5,37z M32.7,175.4
		c0,0.8,0,1.6-0.1,2.4c2.1,1.5,4.1,4,6.4,4.4c3.3,0.6,5.6-1.8,5.7-5.3c0.1-3.5-2.1-6-5.4-5.6C37,171.7,34.9,174,32.7,175.4z"/>
	<path d="M32.6,83.5c-7.1-7.9-14.2-15.8-21.2-23.7c-1-1.1-2.6-2.1-2.8-3.4c-0.4-2,0.1-4.2,0.2-6.3c2.1,0.1,4.8-0.5,6.2,0.6
		c2.9,2.2,5,5.3,7.5,8c7.7,8.5,15.4,17,22.9,25.7c1.4,1.6,2.4,4.6,1.9,6.5c-0.4,1.3-3.6,2.1-5.7,2.5C28,95.9,17.6,91.7,10.6,79.6
		c-2.3-4-5.9-7.2-8.9-10.8c-2-2.4-2.6-5.3,0.3-6.8c1.6-0.8,5.1-0.2,6.3,1.2c5.4,5.7,10,12,15.4,17.7c2,2.1,5,3.2,7.6,4.7
		C31.7,84.9,32.1,84.2,32.6,83.5z"/>
	<path d="M44.4,79.6c-8-9.5-15.4-18.2-22.8-27c-2-2.4-2.6-5.3,0.4-6.8c1.6-0.8,5.1-0.2,6.3,1.1c5.7,6,10.8,12.5,17,19.8
		c2.4-2.8,4.3-5.3,6.5-7.5c2-2.1,4.9-2.7,6.4-0.1c0.9,1.6,0.7,5-0.4,6.4C53.8,70.3,49.2,74.7,44.4,79.6z"/>
	<path fill="#FFFFFF" d="M109.5,157.2c-0.1-1.5-0.1-2.8-0.3-4.1c-0.5-3.6,1.7-9.2-4.3-9.4c-6.2-0.2-4.1,5.5-4.6,9.1
		c-0.2,1.5-0.2,2.9-0.3,4.6c-2.2,0-4.1,0-6.7,0c0-7.8,0-15.5,0-23.1c0-4.9-6.6-14.5-11.2-15.7c-1.5-0.4-3.9,0.2-4.8,1.2
		c-0.9,1.1-0.9,3.4-0.4,5c0.5,1.5,2,2.6,3.6,4.4c-3.8,0-7,0-10,0c0-14.7,0-29.4,0-44c0.7-0.1,1.3-0.2,2-0.2c0.4,2.3,1,4.6,1.1,6.9
		c0.1,3.2,0.5,6.4,4.5,6.5c4,0.1,4.4-3,4.7-6.2c0.1-1.7,1.1-3.8,2.3-5c2.2-2.2,5.9-4.3,3.2-7.6c-1.4-1.7-5.4-1.3-9-2.1
		c0.1-0.1,0.4-1.8,1.2-2.1c2.8-0.9,5.8-1.8,8.7-1.8c20.8-0.1,41.6-0.1,62.4,0c11.2,0.1,18.9,7.7,19,18.8c0.1,12.3,0,24.6,0,37
		c-3.7,0-6.9,0-10.6,0c2.1-3.3,6.2-6.2,1.8-9.6c-4.3-3.3-6.3,1.4-9.1,3.5c-4.5,3.4-6.1,7.8-5.7,13.5c0.5,6.8,0.1,13.6,0.1,20.7
		c-3.3,0-6.1,0-9.6,0c0-2.8,0-5.8,0-8.7c0-3.1-1.5-5.7-4.6-5c-1.7,0.4-3.6,3-4.1,5c-0.7,2.6-0.2,5.5-0.2,8.6c-1.8,0-3.2,0-4.9,0
		c-0.1-1.2-0.3-2.3-0.3-3.4c-0.1-2.3,0.4-4.9-0.4-6.9c-0.7-1.5-3-3.2-4.6-3.3c-1.2-0.1-3.1,2.2-3.7,3.7c-0.7,1.8-0.3,4-0.2,5.9
		C115,157,113.7,158.5,109.5,157.2z M137.2,92.2c-7.6-0.1-14,5.5-14.7,12.8c-0.3,3,0.4,5.9,3.7,5.8c1.7,0,4.2-2.4,4.9-4.2
		c1.2-3.1,2.4-5.6,6.1-5.5c3.6,0.1,4.8,2.5,5.9,5.7c0.6,1.8,3.3,4,5,4c3.2-0.1,4-2.9,3.6-5.9C150.7,97.7,144.6,92.3,137.2,92.2z
		 M102.5,92.2c-7.6,0-14.2,5.7-14.4,13c-0.1,1.9,2.1,3.9,3.3,5.8c1.8-1.3,4.5-2.3,5.1-4c1.1-3.1,2.2-5.7,5.8-5.9
		c3.9-0.2,5.1,2.5,6.3,5.8c0.6,1.7,3.3,2.7,5.1,4.1c1.1-1.8,3.2-3.5,3.3-5.3C117.1,98.3,110.3,92.2,102.5,92.2z M119.4,129.1
		c2.8,2.6,4.2,4.8,6.2,5.6c1.8,0.8,4.1,0.1,6.2,0.1c0-2.1,0.7-4.8-0.3-6.2c-3.1-4.2-7-7.9-11-12.3c-4.3,4.5-8,7.9-11,11.8
		c-1.1,1.5-1.5,5-0.6,6.4c1.8,2.8,4.7,1.9,6.8-0.4C117.1,132.8,118.1,131,119.4,129.1z"/>
	<path fill="#FFFFFF" d="M166.5,37c-2.1,8.6-10,13.7-18.7,12.4c-8.4-1.2-14.7-8.9-14.7-17.6c0-10,7.1-15.4,14-20.5
		c1.3-1,5.9,0.3,7.2,1.9c1.3,1.7,1.2,5.5,0.1,7.6c-1.5,2.8-4.7,4.7-6.7,7.3c-1.1,1.5-2.2,4.2-1.7,5.6c0.6,1.5,3.2,2.9,5.1,3.1
		C156.2,37.3,161.3,37,166.5,37z"/>
	<path fill="#FFFFFF" d="M32.7,175.4c2.2-1.4,4.3-3.7,6.6-4.1c3.3-0.4,5.5,2,5.4,5.6c-0.1,3.5-2.4,5.9-5.7,5.3
		c-2.3-0.4-4.3-2.9-6.4-4.4C32.7,177,32.7,176.2,32.7,175.4z"/>
	<path d="M137.2,92.2c7.4,0.1,13.5,5.5,14.4,12.7c0.4,3-0.5,5.9-3.6,5.9c-1.7,0-4.4-2.2-5-4c-1.1-3.1-2.3-5.6-5.9-5.7
		c-3.6-0.1-4.9,2.4-6.1,5.5c-0.7,1.8-3.2,4.1-4.9,4.2c-3.3,0.1-3.9-2.9-3.7-5.8C123.1,97.7,129.5,92.1,137.2,92.2z"/>
	<path d="M102.5,92.2c7.8,0,14.6,6.1,14.4,13.5c-0.1,1.8-2.1,3.6-3.3,5.3c-1.8-1.3-4.4-2.3-5.1-4.1c-1.2-3.3-2.4-6-6.3-5.8
		c-3.6,0.2-4.7,2.7-5.8,5.9c-0.6,1.7-3.4,2.7-5.1,4c-1.2-1.9-3.3-3.9-3.3-5.8C88.3,97.9,94.9,92.2,102.5,92.2z"/>
	<path d="M119.4,129.1c-1.3,1.9-2.3,3.7-3.6,5.2c-2.1,2.3-5,3.1-6.8,0.4c-1-1.5-0.6-4.9,0.6-6.4c3-4,6.7-7.3,11-11.8
		c4,4.4,7.8,8.1,11,12.3c1,1.4,0.2,4.1,0.3,6.2c-2.1,0-4.5,0.7-6.2-0.1C123.6,133.9,122.2,131.7,119.4,129.1z"/>
</g>
</svg>
