<svg class="nc-icon outline" xmlns="http://www.w3.org/2000/svg" xmlns:xlink="http://www.w3.org/1999/xlink" x="0px" y="0px" width="48px" height="48px" viewBox="0 0 48 48"><g transform="translate(0.5, 0.5)">
<path data-color="color-2" fill="none" stroke="#0095da" stroke-width="1" stroke-linecap="square" stroke-miterlimit="10" d="M2,42h2
	c2.2,0,4-1.8,4-4v-2l-4.5-2.3c-1.5-0.8-1.4-2.9,0.1-3.6L8,28v-4l4.6-1.1c1.5-0.4,2-2.3,0.9-3.4L8,14V4" stroke-linejoin="miter"></path>
<path fill="none" stroke="#444444" stroke-width="1" stroke-linecap="square" stroke-miterlimit="10" d="M16,32l6-8V12
	c0-2.2,1.8-4,4-4h16c2.2,0,4,1.8,4,4v16c0,2.2-1.8,4-4,4H28H16z" stroke-linejoin="miter"></path>
<line fill="none" stroke="#444444" stroke-width="1" stroke-linecap="square" stroke-miterlimit="10" x1="30" y1="16" x2="38" y2="16" stroke-linejoin="miter"></line>
<line fill="none" stroke="#444444" stroke-width="1" stroke-linecap="square" stroke-miterlimit="10" x1="30" y1="24" x2="34" y2="24" stroke-linejoin="miter"></line>
</g></svg>