<svg xmlns="http://www.w3.org/2000/svg" xmlns:xlink="http://www.w3.org/1999/xlink" x="0px" y="0px" width="64px" height="64px" viewBox="0 0 64 64"><g  transform="translate(0, 0)">
<path fill="none" stroke="#011e22" stroke-width="2" stroke-linecap="square" stroke-miterlimit="10" d="M54,24c0-12.2-9.8-22-22-22
	s-22,9.8-22,22c0,8.5,4.9,15.9,12,19.6V52h20v-8.4C49.1,39.9,54,32.5,54,24z" stroke-linejoin="miter"/>
<path fill="none" stroke="#011e22" stroke-width="2" stroke-linecap="square" stroke-miterlimit="10" d="M20,30c0-2.2,1.8-4,4-4
	s4,1.8,4,4c0,0.7,0,4,0,4s-2.5,0-4,0C21.8,34,20,32.2,20,30z" stroke-linejoin="miter"/>
<line fill="none" stroke="#011e22" stroke-width="2" stroke-linecap="square" stroke-miterlimit="10" x1="28" y1="34" x2="28" y2="52" stroke-linejoin="miter"/>
<path fill="none" stroke="#011e22" stroke-width="2" stroke-linecap="square" stroke-miterlimit="10" d="M44,30c0-2.2-1.8-4-4-4
	s-4,1.8-4,4c0,0.7,0,4,0,4s2.5,0,4,0C42.2,34,44,32.2,44,30z" stroke-linejoin="miter"/>
<line fill="none" stroke="#011e22" stroke-width="2" stroke-linecap="square" stroke-miterlimit="10" x1="36" y1="34" x2="36" y2="52" stroke-linejoin="miter"/>
<line fill="none" stroke="#011e22" stroke-width="2" stroke-linecap="square" stroke-miterlimit="10" x1="28" y1="34" x2="36" y2="34" stroke-linejoin="miter"/>
<line data-color="color-2" fill="none" stroke="#f3c967" stroke-width="2" stroke-linecap="square" stroke-miterlimit="10" x1="22" y1="58" x2="42" y2="58" stroke-linejoin="miter"/>
<line data-color="color-2" fill="none" stroke="#f3c967" stroke-width="2" stroke-linecap="square" stroke-miterlimit="10" x1="28" y1="62" x2="36" y2="62" stroke-linejoin="miter"/>
</g></svg>